# Blender 5.0.1
# www.blender.org
o Sphere
v 0.000000 1.000000 0.000000
v 0.000000 0.831470 -0.555570
v 0.000000 0.555570 -0.831470
v 0.000000 0.195090 -0.980785
v 0.000000 0.000000 -1.000000
v 0.000000 -0.195090 -0.980785
v 0.000000 -0.555570 -0.831470
v 0.000000 -1.000000 0.000000
v 0.038060 0.980785 -0.191342
v 0.074658 0.923880 -0.375330
v 0.108386 0.831470 -0.544895
v 0.137950 0.707107 -0.693520
v 0.162212 0.555570 -0.815493
v 0.180240 0.382683 -0.906127
v 0.191342 0.195090 -0.961940
v 0.195090 0.000000 -0.980785
v 0.191342 -0.195090 -0.961940
v 0.180240 -0.382683 -0.906127
v 0.162212 -0.555570 -0.815493
v 0.137950 -0.707107 -0.693520
v 0.108386 -0.831470 -0.544895
v 0.074658 -0.923880 -0.375330
v 0.038060 -0.980785 -0.191342
v 0.074658 0.980785 -0.180240
v 0.146447 0.923880 -0.353553
v 0.212608 0.831470 -0.513280
v 0.270598 0.707107 -0.653281
v 0.318190 0.555570 -0.768178
v 0.353553 0.382683 -0.853553
v 0.375330 0.195090 -0.906127
v 0.382683 0.000000 -0.923879
v 0.375330 -0.195090 -0.906127
v 0.353553 -0.382683 -0.853553
v 0.318190 -0.555570 -0.768178
v 0.270598 -0.707107 -0.653281
v 0.212608 -0.831470 -0.513280
v 0.146447 -0.923880 -0.353553
v 0.074658 -0.980785 -0.180240
v 0.108386 0.980785 -0.162212
v 0.212608 0.923880 -0.318190
v 0.308658 0.831470 -0.461940
v 0.392847 0.707107 -0.587938
v 0.461940 0.555570 -0.691342
v 0.513280 0.382683 -0.768178
v 0.544895 0.195090 -0.815493
v 0.555570 0.000000 -0.831469
v 0.544895 -0.195090 -0.815493
v 0.513280 -0.382683 -0.768178
v 0.461940 -0.555570 -0.691342
v 0.392847 -0.707107 -0.587938
v 0.308658 -0.831470 -0.461940
v 0.212608 -0.923880 -0.318190
v 0.108386 -0.980785 -0.162212
v 0.137950 0.980785 -0.137950
v 0.270598 0.923880 -0.270598
v 0.392847 0.831470 -0.392847
v 0.500000 0.707107 -0.500000
v 0.587938 0.555570 -0.587938
v 0.653281 0.382683 -0.653281
v 0.693520 0.195090 -0.693520
v 0.707107 0.000000 -0.707107
v 0.693520 -0.195090 -0.693520
v 0.653281 -0.382683 -0.653281
v 0.587938 -0.555570 -0.587938
v 0.500000 -0.707107 -0.500000
v 0.392847 -0.831470 -0.392847
v 0.270598 -0.923880 -0.270598
v 0.137950 -0.980785 -0.137950
v 0.162212 0.980785 -0.108386
v 0.318190 0.923880 -0.212608
v 0.461940 0.831470 -0.308658
v 0.587938 0.707107 -0.392847
v 0.691342 0.555570 -0.461940
v 0.768178 0.382683 -0.513280
v 0.815493 0.195090 -0.544895
v 0.831470 0.000000 -0.555570
v 0.815493 -0.195090 -0.544895
v 0.768178 -0.382683 -0.513280
v 0.691342 -0.555570 -0.461940
v 0.587938 -0.707107 -0.392847
v 0.461940 -0.831470 -0.308658
v 0.318190 -0.923880 -0.212608
v 0.162212 -0.980785 -0.108386
v 0.180240 0.980785 -0.074658
v 0.353553 0.923880 -0.146447
v 0.513280 0.831470 -0.212607
v 0.653281 0.707107 -0.270598
v 0.768178 0.555570 -0.318190
v 0.853553 0.382683 -0.353553
v 0.906127 0.195090 -0.375330
v 0.923879 0.000000 -0.382683
v 0.906127 -0.195090 -0.375330
v 0.853553 -0.382683 -0.353553
v 0.768178 -0.555570 -0.318190
v 0.653281 -0.707107 -0.270598
v 0.513280 -0.831470 -0.212607
v 0.353553 -0.923880 -0.146447
v 0.180240 -0.980785 -0.074658
v 0.191342 0.980785 -0.038060
v 0.375330 0.923880 -0.074658
v 0.544895 0.831470 -0.108386
v 0.693520 0.707107 -0.137950
v 0.815493 0.555570 -0.162212
v 0.906127 0.382683 -0.180240
v 0.961940 0.195090 -0.191342
v 0.980785 0.000000 -0.195090
v 0.961940 -0.195090 -0.191342
v 0.906127 -0.382683 -0.180240
v 0.815493 -0.555570 -0.162212
v 0.693520 -0.707107 -0.137950
v 0.544895 -0.831470 -0.108386
v 0.375330 -0.923880 -0.074658
v 0.191342 -0.980785 -0.038060
v 0.195090 0.980785 0.000000
v 0.382683 0.923880 0.000000
v 0.555570 0.831470 0.000000
v 0.707107 0.707107 -0.000000
v 0.831469 0.555570 0.000000
v 0.923879 0.382683 -0.000000
v 0.980785 0.195090 0.000000
v 1.000000 0.000000 0.000000
v 0.980785 -0.195090 0.000000
v 0.923879 -0.382683 -0.000000
v 0.831469 -0.555570 0.000000
v 0.707107 -0.707107 -0.000000
v 0.555570 -0.831470 0.000000
v 0.382683 -0.923880 0.000000
v 0.195090 -0.980785 0.000000
v 0.191342 0.980785 0.038060
v 0.375330 0.923880 0.074658
v 0.544895 0.831470 0.108386
v 0.693520 0.707107 0.137950
v 0.815493 0.555570 0.162212
v 0.906127 0.382683 0.180240
v 0.961940 0.195090 0.191342
v 0.980785 0.000000 0.195090
v 0.961940 -0.195090 0.191342
v 0.906127 -0.382683 0.180240
v 0.815493 -0.555570 0.162212
v 0.693520 -0.707107 0.137950
v 0.544895 -0.831470 0.108386
v 0.375330 -0.923880 0.074658
v 0.191342 -0.980785 0.038060
v 0.180240 0.980785 0.074658
v 0.353553 0.923880 0.146447
v 0.513280 0.831470 0.212608
v 0.653281 0.707107 0.270598
v 0.768178 0.555570 0.318190
v 0.853553 0.382683 0.353553
v 0.906127 0.195090 0.375330
v 0.923879 0.000000 0.382683
v 0.906127 -0.195090 0.375330
v 0.853553 -0.382683 0.353553
v 0.768178 -0.555570 0.318190
v 0.653281 -0.707107 0.270598
v 0.513280 -0.831470 0.212608
v 0.353553 -0.923880 0.146447
v 0.180240 -0.980785 0.074658
v 0.162212 0.980785 0.108386
v 0.318190 0.923880 0.212608
v 0.461940 0.831470 0.308658
v 0.587938 0.707107 0.392847
v 0.691341 0.555570 0.461940
v 0.768178 0.382683 0.513280
v 0.815493 0.195090 0.544895
v 0.831469 0.000000 0.555570
v 0.815493 -0.195090 0.544895
v 0.768178 -0.382683 0.513280
v 0.691341 -0.555570 0.461940
v 0.587938 -0.707107 0.392847
v 0.461940 -0.831470 0.308658
v 0.318190 -0.923880 0.212608
v 0.162212 -0.980785 0.108386
v 0.137950 0.980785 0.137950
v 0.270598 0.923880 0.270598
v 0.392847 0.831470 0.392847
v 0.500000 0.707107 0.500000
v 0.587938 0.555570 0.587938
v 0.653281 0.382683 0.653281
v 0.693520 0.195090 0.693520
v 0.707106 0.000000 0.707107
v 0.693520 -0.195090 0.693520
v 0.653281 -0.382683 0.653281
v 0.587938 -0.555570 0.587938
v 0.500000 -0.707107 0.500000
v 0.392847 -0.831470 0.392847
v 0.270598 -0.923880 0.270598
v 0.137950 -0.980785 0.137950
v 0.108386 0.980785 0.162212
v 0.212607 0.923880 0.318190
v 0.308658 0.831470 0.461940
v 0.392847 0.707107 0.587938
v 0.461940 0.555570 0.691342
v 0.513280 0.382683 0.768178
v 0.544895 0.195090 0.815493
v 0.555570 0.000000 0.831469
v 0.544895 -0.195090 0.815493
v 0.513280 -0.382683 0.768178
v 0.461940 -0.555570 0.691342
v 0.392847 -0.707107 0.587938
v 0.308658 -0.831470 0.461940
v 0.212607 -0.923880 0.318190
v 0.108386 -0.980785 0.162212
v 0.074658 0.980785 0.180240
v 0.146447 0.923880 0.353553
v 0.212607 0.831470 0.513280
v 0.270598 0.707107 0.653281
v 0.318189 0.555570 0.768178
v 0.353553 0.382683 0.853553
v 0.375330 0.195090 0.906127
v 0.382683 0.000000 0.923879
v 0.375330 -0.195090 0.906127
v 0.353553 -0.382683 0.853553
v 0.318189 -0.555570 0.768178
v 0.270598 -0.707107 0.653281
v 0.212607 -0.831470 0.513280
v 0.146447 -0.923880 0.353553
v 0.074658 -0.980785 0.180240
v 0.038060 0.980785 0.191342
v 0.074658 0.923880 0.375330
v 0.108386 0.831470 0.544895
v 0.137950 0.707107 0.693520
v 0.162212 0.555570 0.815493
v 0.180240 0.382683 0.906127
v 0.191342 0.195090 0.961939
v 0.195090 0.000000 0.980785
v 0.191342 -0.195090 0.961939
v 0.180240 -0.382683 0.906127
v 0.162212 -0.555570 0.815493
v 0.137950 -0.707107 0.693520
v 0.108386 -0.831470 0.544895
v 0.074658 -0.923880 0.375330
v 0.038060 -0.980785 0.191342
v -0.000000 0.980785 0.195090
v -0.000000 0.923880 0.382683
v -0.000000 0.831470 0.555570
v -0.000000 0.707107 0.707107
v -0.000000 0.555570 0.831469
v 0.000000 0.382683 0.923879
v -0.000000 0.195090 0.980785
v -0.000000 0.000000 0.999999
v -0.000000 -0.195090 0.980785
v 0.000000 -0.382683 0.923879
v -0.000000 -0.555570 0.831469
v -0.000000 -0.707107 0.707107
v -0.000000 -0.831470 0.555570
v -0.000000 -0.923880 0.382683
v -0.000000 -0.980785 0.195090
v -0.038060 0.980785 0.191342
v -0.074658 0.923880 0.375330
v -0.108386 0.831470 0.544895
v -0.137950 0.707107 0.693520
v -0.162212 0.555570 0.815493
v -0.180240 0.382683 0.906127
v -0.191342 0.195090 0.961939
v -0.195091 0.000000 0.980785
v -0.191342 -0.195090 0.961939
v -0.180240 -0.382683 0.906127
v -0.162212 -0.555570 0.815493
v -0.137950 -0.707107 0.693520
v -0.108386 -0.831470 0.544895
v -0.074658 -0.923880 0.375330
v -0.038060 -0.980785 0.191342
v -0.074658 0.980785 0.180240
v -0.146447 0.923880 0.353553
v -0.212608 0.831470 0.513280
v -0.270598 0.707107 0.653281
v -0.318190 0.555570 0.768177
v -0.353553 0.382683 0.853553
v -0.375330 0.195090 0.906127
v -0.382683 0.000000 0.923879
v -0.375330 -0.195090 0.906127
v -0.353553 -0.382683 0.853553
v -0.318190 -0.555570 0.768177
v -0.270598 -0.707107 0.653281
v -0.212608 -0.831470 0.513280
v -0.146447 -0.923880 0.353553
v -0.074658 -0.980785 0.180240
v -0.108386 0.980785 0.162212
v -0.212608 0.923880 0.318190
v -0.308658 0.831470 0.461939
v -0.392847 0.707107 0.587938
v -0.461940 0.555570 0.691341
v -0.513280 0.382683 0.768178
v -0.544895 0.195090 0.815493
v -0.555570 0.000000 0.831469
v -0.544895 -0.195090 0.815493
v -0.513280 -0.382683 0.768178
v -0.461940 -0.555570 0.691341
v -0.392847 -0.707107 0.587938
v -0.308658 -0.831470 0.461939
v -0.212608 -0.923880 0.318190
v -0.108386 -0.980785 0.162212
v -0.137950 0.980785 0.137950
v -0.270598 0.923880 0.270598
v -0.392847 0.831470 0.392847
v -0.500000 0.707107 0.500000
v -0.587938 0.555570 0.587937
v -0.653281 0.382683 0.653281
v -0.693520 0.195090 0.693520
v -0.707106 0.000000 0.707106
v -0.693520 -0.195090 0.693520
v -0.653281 -0.382683 0.653281
v -0.587938 -0.555570 0.587937
v -0.500000 -0.707107 0.500000
v -0.392847 -0.831470 0.392847
v -0.270598 -0.923880 0.270598
v -0.137950 -0.980785 0.137950
v -0.162212 0.980785 0.108386
v -0.318190 0.923880 0.212607
v -0.461940 0.831470 0.308658
v -0.587938 0.707107 0.392847
v -0.691341 0.555570 0.461939
v -0.768177 0.382683 0.513280
v -0.815493 0.195090 0.544895
v -0.831469 0.000000 0.555569
v -0.815493 -0.195090 0.544895
v -0.768177 -0.382683 0.513280
v -0.691341 -0.555570 0.461939
v -0.587938 -0.707107 0.392847
v -0.461940 -0.831470 0.308658
v -0.318190 -0.923880 0.212607
v -0.162212 -0.980785 0.108386
v -0.180240 0.980785 0.074658
v -0.353553 0.923880 0.146447
v -0.513280 0.831470 0.212607
v -0.653281 0.707107 0.270598
v -0.768177 0.555570 0.318189
v -0.853553 0.382683 0.353553
v -0.906127 0.195090 0.375330
v -0.923879 0.000000 0.382683
v -0.906127 -0.195090 0.375330
v -0.853553 -0.382683 0.353553
v -0.768177 -0.555570 0.318189
v -0.653281 -0.707107 0.270598
v -0.513280 -0.831470 0.212607
v -0.353553 -0.923880 0.146447
v -0.180240 -0.980785 0.074658
v -0.191342 0.980785 0.038060
v -0.375330 0.923880 0.074658
v -0.544895 0.831470 0.108386
v -0.693520 0.707107 0.137950
v -0.815493 0.555570 0.162211
v -0.906127 0.382683 0.180240
v -0.961939 0.195090 0.191341
v -0.980784 0.000000 0.195090
v -0.961939 -0.195090 0.191341
v -0.906127 -0.382683 0.180240
v -0.815493 -0.555570 0.162211
v -0.693520 -0.707107 0.137950
v -0.544895 -0.831470 0.108386
v -0.375330 -0.923880 0.074658
v -0.191342 -0.980785 0.038060
v -0.195090 0.980785 -0.000000
v -0.382683 0.923880 -0.000000
v -0.555570 0.831470 -0.000000
v -0.707107 0.707107 -0.000000
v -0.831469 0.555570 -0.000000
v -0.923879 0.382683 -0.000000
v -0.980785 0.195090 -0.000000
v -0.999999 0.000000 -0.000000
v -0.980785 -0.195090 -0.000000
v -0.923879 -0.382683 -0.000000
v -0.831469 -0.555570 -0.000000
v -0.707107 -0.707107 -0.000000
v -0.555570 -0.831470 -0.000000
v -0.382683 -0.923880 -0.000000
v -0.195090 -0.980785 -0.000000
v -0.191342 0.980785 -0.038060
v -0.375330 0.923880 -0.074658
v -0.544895 0.831470 -0.108386
v -0.693520 0.707107 -0.137950
v -0.815493 0.555570 -0.162212
v -0.906127 0.382683 -0.180240
v -0.961939 0.195090 -0.191342
v -0.980784 0.000000 -0.195091
v -0.961939 -0.195090 -0.191342
v -0.906127 -0.382683 -0.180240
v -0.815493 -0.555570 -0.162212
v -0.693520 -0.707107 -0.137950
v -0.544895 -0.831470 -0.108386
v -0.375330 -0.923880 -0.074658
v -0.191342 -0.980785 -0.038060
v -0.180240 0.980785 -0.074658
v -0.353553 0.923880 -0.146447
v -0.513279 0.831470 -0.212607
v -0.653281 0.707107 -0.270598
v -0.768177 0.555570 -0.318190
v -0.853553 0.382683 -0.353553
v -0.906127 0.195090 -0.375330
v -0.923878 0.000000 -0.382683
v -0.906127 -0.195090 -0.375330
v -0.853553 -0.382683 -0.353553
v -0.768177 -0.555570 -0.318190
v -0.653281 -0.707107 -0.270598
v -0.513279 -0.831470 -0.212607
v -0.353553 -0.923880 -0.146447
v -0.180240 -0.980785 -0.074658
v -0.162212 0.980785 -0.108386
v -0.318189 0.923880 -0.212607
v -0.461939 0.831470 -0.308658
v -0.587938 0.707107 -0.392847
v -0.691341 0.555570 -0.461940
v -0.768177 0.382683 -0.513280
v -0.815493 0.195090 -0.544895
v -0.831468 0.000000 -0.555570
v -0.815493 -0.195090 -0.544895
v -0.768177 -0.382683 -0.513280
v -0.691341 -0.555570 -0.461940
v -0.587938 -0.707107 -0.392847
v -0.461939 -0.831470 -0.308658
v -0.318189 -0.923880 -0.212607
v -0.162212 -0.980785 -0.108386
v -0.137950 0.980785 -0.137950
v -0.270598 0.923880 -0.270598
v -0.392847 0.831470 -0.392847
v -0.500000 0.707107 -0.500000
v -0.587937 0.555570 -0.587938
v -0.653281 0.382683 -0.653281
v -0.693519 0.195090 -0.693520
v -0.707106 0.000000 -0.707106
v -0.693519 -0.195090 -0.693520
v -0.653281 -0.382683 -0.653281
v -0.587937 -0.555570 -0.587938
v -0.500000 -0.707107 -0.500000
v -0.392847 -0.831470 -0.392847
v -0.270598 -0.923880 -0.270598
v -0.137950 -0.980785 -0.137950
v -0.108386 0.980785 -0.162212
v -0.212607 0.923880 -0.318190
v -0.308658 0.831470 -0.461939
v -0.392847 0.707107 -0.587938
v -0.461939 0.555570 -0.691341
v -0.513280 0.382683 -0.768177
v -0.544895 0.195090 -0.815493
v -0.555569 0.000000 -0.831469
v -0.544895 -0.195090 -0.815493
v -0.513280 -0.382683 -0.768177
v -0.461939 -0.555570 -0.691341
v -0.392847 -0.707107 -0.587938
v -0.308658 -0.831470 -0.461939
v -0.212607 -0.923880 -0.318190
v -0.108386 -0.980785 -0.162212
v -0.074658 0.980785 -0.180240
v -0.146446 0.923880 -0.353553
v -0.212607 0.831470 -0.513279
v -0.270598 0.707107 -0.653281
v -0.318189 0.555570 -0.768177
v -0.353553 0.382683 -0.853553
v -0.375330 0.195090 -0.906127
v -0.382683 0.000000 -0.923879
v -0.375330 -0.195090 -0.906127
v -0.353553 -0.382683 -0.853553
v -0.318189 -0.555570 -0.768177
v -0.270598 -0.707107 -0.653281
v -0.212607 -0.831470 -0.513279
v -0.146446 -0.923880 -0.353553
v -0.074658 -0.980785 -0.180240
v -0.038060 0.980785 -0.191342
v -0.074658 0.923880 -0.375330
v -0.108386 0.831470 -0.544895
v -0.137950 0.707107 -0.693520
v -0.162211 0.555570 -0.815493
v -0.180240 0.382683 -0.906127
v -0.191341 0.195090 -0.961939
v -0.195090 0.000000 -0.980784
v -0.191341 -0.195090 -0.961939
v -0.180240 -0.382683 -0.906127
v -0.162211 -0.555570 -0.815493
v -0.137950 -0.707107 -0.693520
v -0.108386 -0.831470 -0.544895
v -0.074658 -0.923880 -0.375330
v -0.038060 -0.980785 -0.191342
v 0.000000 0.980785 -0.195090
v 0.000000 0.923880 -0.382683
v 0.000000 0.707107 -0.707107
v 0.000000 0.382683 -0.923879
v 0.000000 -0.382683 -0.923879
v 0.000000 -0.707107 -0.707107
v 0.000000 -0.831470 -0.555570
v 0.000000 -0.923880 -0.382683
v 0.000000 -0.980785 -0.195090
vn 0.0975 0.0975 -0.9904
vn 0.0097 0.9951 -0.0980
vn 0.0097 -0.9951 -0.0980
vn 0.0975 -0.0976 -0.9904
vn 0.0286 0.9565 -0.2902
vn 0.0938 -0.2890 -0.9527
vn 0.0464 0.8810 -0.4709
vn 0.0865 -0.4696 -0.8786
vn 0.0624 0.7715 -0.6332
vn 0.0759 -0.6326 -0.7708
vn 0.0759 0.6326 -0.7708
vn 0.0624 -0.7715 -0.6332
vn 0.0865 0.4696 -0.8786
vn 0.0464 -0.8810 -0.4709
vn 0.0938 0.2890 -0.9527
vn 0.0286 -0.9565 -0.2902
vn 0.1374 -0.8810 -0.4528
vn 0.2779 0.2890 -0.9161
vn 0.0846 -0.9565 -0.2790
vn 0.2889 0.0976 -0.9524
vn 0.0286 0.9951 -0.0942
vn 0.0286 -0.9951 -0.0942
vn 0.2889 -0.0976 -0.9524
vn 0.0846 0.9565 -0.2790
vn 0.2779 -0.2890 -0.9161
vn 0.1374 0.8810 -0.4528
vn 0.2563 -0.4696 -0.8448
vn 0.1847 0.7715 -0.6088
vn 0.2248 -0.6326 -0.7412
vn 0.2248 0.6326 -0.7412
vn 0.1847 -0.7715 -0.6088
vn 0.2563 0.4696 -0.8448
vn 0.4162 -0.4696 -0.7786
vn 0.2999 0.7715 -0.5611
vn 0.3651 -0.6326 -0.6831
vn 0.3651 0.6326 -0.6831
vn 0.2999 -0.7715 -0.5611
vn 0.4162 0.4696 -0.7786
vn 0.2230 -0.8810 -0.4173
vn 0.4513 0.2890 -0.8443
vn 0.1374 -0.9565 -0.2571
vn 0.4691 0.0975 -0.8777
vn 0.0464 0.9951 -0.0869
vn 0.0464 -0.9951 -0.0869
vn 0.4691 -0.0975 -0.8777
vn 0.1374 0.9565 -0.2571
vn 0.4513 -0.2890 -0.8443
vn 0.2231 0.8810 -0.4173
vn 0.1850 -0.9565 -0.2254
vn 0.6314 0.0975 -0.7693
vn 0.0625 0.9951 -0.0761
vn 0.0625 -0.9951 -0.0761
vn 0.6314 -0.0975 -0.7693
vn 0.1850 0.9565 -0.2254
vn 0.6073 -0.2890 -0.7400
vn 0.3002 0.8810 -0.3658
vn 0.5601 -0.4696 -0.6825
vn 0.4036 0.7715 -0.4918
vn 0.4913 -0.6326 -0.5987
vn 0.4913 0.6326 -0.5987
vn 0.4036 -0.7715 -0.4918
vn 0.5601 0.4696 -0.6825
vn 0.3002 -0.8810 -0.3658
vn 0.6073 0.2890 -0.7400
vn 0.4918 0.7715 -0.4036
vn 0.5987 -0.6326 -0.4913
vn 0.5987 0.6326 -0.4913
vn 0.4918 -0.7715 -0.4036
vn 0.6825 0.4696 -0.5601
vn 0.3658 -0.8810 -0.3002
vn 0.7400 0.2890 -0.6073
vn 0.2254 -0.9566 -0.1850
vn 0.7693 0.0975 -0.6314
vn 0.0761 0.9951 -0.0625
vn 0.0761 -0.9951 -0.0625
vn 0.7693 -0.0975 -0.6314
vn 0.2254 0.9565 -0.1850
vn 0.7400 -0.2890 -0.6073
vn 0.3658 0.8810 -0.3002
vn 0.6825 -0.4696 -0.5601
vn 0.8777 0.0975 -0.4691
vn 0.0869 0.9951 -0.0464
vn 0.0869 -0.9951 -0.0464
vn 0.8777 -0.0975 -0.4691
vn 0.2571 0.9565 -0.1374
vn 0.8443 -0.2890 -0.4513
vn 0.4173 0.8810 -0.2230
vn 0.7786 -0.4696 -0.4162
vn 0.5611 0.7715 -0.2999
vn 0.6831 -0.6326 -0.3651
vn 0.6831 0.6326 -0.3651
vn 0.5611 -0.7715 -0.2999
vn 0.7786 0.4696 -0.4162
vn 0.4173 -0.8810 -0.2230
vn 0.8443 0.2890 -0.4513
vn 0.2571 -0.9565 -0.1374
vn 0.7412 -0.6326 -0.2248
vn 0.7412 0.6326 -0.2248
vn 0.6088 -0.7715 -0.1847
vn 0.8448 0.4696 -0.2563
vn 0.4528 -0.8810 -0.1374
vn 0.9161 0.2890 -0.2779
vn 0.2790 -0.9565 -0.0846
vn 0.9524 0.0975 -0.2889
vn 0.0942 0.9951 -0.0286
vn 0.0942 -0.9951 -0.0286
vn 0.9524 -0.0975 -0.2889
vn 0.2790 0.9565 -0.0846
vn 0.9161 -0.2890 -0.2779
vn 0.4528 0.8810 -0.1374
vn 0.8448 -0.4696 -0.2563
vn 0.6088 0.7715 -0.1847
vn 0.0980 0.9951 -0.0097
vn 0.0980 -0.9951 -0.0097
vn 0.9904 -0.0975 -0.0975
vn 0.2902 0.9565 -0.0286
vn 0.9527 -0.2890 -0.0938
vn 0.4709 0.8810 -0.0464
vn 0.8786 -0.4696 -0.0865
vn 0.6332 0.7715 -0.0624
vn 0.7708 -0.6326 -0.0759
vn 0.7708 0.6326 -0.0759
vn 0.6332 -0.7715 -0.0624
vn 0.8786 0.4696 -0.0865
vn 0.4709 -0.8810 -0.0464
vn 0.9527 0.2890 -0.0938
vn 0.2902 -0.9565 -0.0286
vn 0.9904 0.0975 -0.0975
vn 0.7708 0.6326 0.0759
vn 0.6332 -0.7715 0.0624
vn 0.8786 0.4696 0.0865
vn 0.4709 -0.8810 0.0464
vn 0.9527 0.2890 0.0938
vn 0.2902 -0.9565 0.0286
vn 0.9904 0.0975 0.0976
vn 0.0980 0.9951 0.0097
vn 0.0980 -0.9951 0.0097
vn 0.9904 -0.0975 0.0976
vn 0.2902 0.9565 0.0286
vn 0.9527 -0.2890 0.0938
vn 0.4709 0.8810 0.0464
vn 0.8786 -0.4696 0.0865
vn 0.6332 0.7715 0.0624
vn 0.7708 -0.6326 0.0759
vn 0.9524 -0.0975 0.2889
vn 0.2790 0.9565 0.0846
vn 0.9161 -0.2890 0.2779
vn 0.4528 0.8810 0.1374
vn 0.8448 -0.4696 0.2563
vn 0.6088 0.7715 0.1847
vn 0.7412 -0.6326 0.2248
vn 0.7412 0.6326 0.2248
vn 0.6088 -0.7715 0.1847
vn 0.8448 0.4696 0.2563
vn 0.4528 -0.8810 0.1374
vn 0.9161 0.2890 0.2779
vn 0.2790 -0.9565 0.0846
vn 0.9524 0.0975 0.2889
vn 0.0942 0.9951 0.0286
vn 0.0942 -0.9951 0.0286
vn 0.5611 -0.7715 0.2999
vn 0.7786 0.4696 0.4162
vn 0.4173 -0.8810 0.2230
vn 0.8443 0.2890 0.4513
vn 0.2571 -0.9565 0.1374
vn 0.8777 0.0975 0.4691
vn 0.0869 0.9951 0.0464
vn 0.0869 -0.9951 0.0464
vn 0.8777 -0.0975 0.4691
vn 0.2571 0.9565 0.1374
vn 0.8443 -0.2890 0.4513
vn 0.4173 0.8810 0.2231
vn 0.7786 -0.4696 0.4162
vn 0.5611 0.7715 0.2999
vn 0.6831 -0.6326 0.3651
vn 0.6831 0.6326 0.3651
vn 0.7400 -0.2890 0.6073
vn 0.3658 0.8810 0.3002
vn 0.6825 -0.4696 0.5601
vn 0.4918 0.7715 0.4036
vn 0.5987 -0.6326 0.4913
vn 0.5987 0.6326 0.4913
vn 0.4918 -0.7715 0.4036
vn 0.6825 0.4696 0.5601
vn 0.3658 -0.8810 0.3002
vn 0.7400 0.2890 0.6073
vn 0.2254 -0.9565 0.1850
vn 0.7693 0.0975 0.6314
vn 0.0761 0.9951 0.0625
vn 0.0761 -0.9951 0.0625
vn 0.7693 -0.0975 0.6314
vn 0.2254 0.9565 0.1850
vn 0.3002 -0.8810 0.3658
vn 0.6073 0.2890 0.7400
vn 0.1850 -0.9565 0.2254
vn 0.6314 0.0975 0.7693
vn 0.0625 0.9951 0.0761
vn 0.0625 -0.9951 0.0761
vn 0.6314 -0.0975 0.7693
vn 0.1850 0.9565 0.2254
vn 0.6073 -0.2890 0.7400
vn 0.3002 0.8810 0.3658
vn 0.5601 -0.4696 0.6825
vn 0.4036 0.7715 0.4918
vn 0.4913 -0.6326 0.5987
vn 0.4913 0.6326 0.5987
vn 0.4036 -0.7715 0.4918
vn 0.5601 0.4696 0.6825
vn 0.2230 0.8810 0.4173
vn 0.4162 -0.4696 0.7786
vn 0.2999 0.7715 0.5611
vn 0.3651 -0.6326 0.6831
vn 0.3651 0.6326 0.6831
vn 0.2999 -0.7715 0.5611
vn 0.4162 0.4696 0.7786
vn 0.2230 -0.8810 0.4173
vn 0.4513 0.2890 0.8443
vn 0.1374 -0.9565 0.2571
vn 0.4691 0.0975 0.8777
vn 0.0464 0.9951 0.0869
vn 0.0464 -0.9951 0.0869
vn 0.4691 -0.0975 0.8777
vn 0.1374 0.9565 0.2571
vn 0.4513 -0.2890 0.8443
vn 0.2779 0.2890 0.9161
vn 0.0846 -0.9565 0.2790
vn 0.2889 0.0975 0.9524
vn 0.0286 0.9951 0.0942
vn 0.0286 -0.9951 0.0942
vn 0.2889 -0.0975 0.9524
vn 0.0846 0.9565 0.2790
vn 0.2779 -0.2890 0.9161
vn 0.1374 0.8810 0.4528
vn 0.2563 -0.4696 0.8448
vn 0.1847 0.7715 0.6088
vn 0.2248 -0.6326 0.7412
vn 0.2248 0.6326 0.7412
vn 0.1847 -0.7715 0.6088
vn 0.2563 0.4696 0.8448
vn 0.1374 -0.8810 0.4528
vn 0.0865 -0.4696 0.8786
vn 0.0624 0.7715 0.6332
vn 0.0759 -0.6326 0.7708
vn 0.0759 0.6326 0.7708
vn 0.0624 -0.7715 0.6332
vn 0.0865 0.4696 0.8786
vn 0.0464 -0.8810 0.4709
vn 0.0938 0.2890 0.9527
vn 0.0286 -0.9565 0.2902
vn 0.0975 0.0975 0.9904
vn 0.0097 0.9951 0.0980
vn 0.0097 -0.9951 0.0980
vn 0.0975 -0.0975 0.9904
vn 0.0286 0.9565 0.2902
vn 0.0938 -0.2890 0.9527
vn 0.0464 0.8810 0.4709
vn -0.0286 -0.9565 0.2902
vn -0.0976 0.0975 0.9904
vn -0.0097 0.9951 0.0980
vn -0.0097 -0.9951 0.0980
vn -0.0975 -0.0975 0.9904
vn -0.0286 0.9565 0.2902
vn -0.0938 -0.2890 0.9527
vn -0.0464 0.8810 0.4709
vn -0.0865 -0.4696 0.8786
vn -0.0624 0.7715 0.6332
vn -0.0759 -0.6326 0.7708
vn -0.0759 0.6326 0.7708
vn -0.0624 -0.7715 0.6332
vn -0.0865 0.4696 0.8786
vn -0.0464 -0.8810 0.4709
vn -0.0938 0.2890 0.9527
vn -0.1847 0.7715 0.6088
vn -0.2248 -0.6326 0.7412
vn -0.2248 0.6326 0.7412
vn -0.1847 -0.7715 0.6088
vn -0.2563 0.4696 0.8448
vn -0.1374 -0.8810 0.4528
vn -0.2779 0.2890 0.9161
vn -0.0846 -0.9565 0.2790
vn -0.2889 0.0975 0.9524
vn -0.0286 0.9951 0.0942
vn -0.0286 -0.9951 0.0942
vn -0.2889 -0.0975 0.9524
vn -0.0846 0.9565 0.2790
vn -0.2779 -0.2890 0.9161
vn -0.1374 0.8810 0.4528
vn -0.2563 -0.4696 0.8448
vn -0.4691 0.0975 0.8777
vn -0.0464 0.9951 0.0869
vn -0.0464 -0.9951 0.0869
vn -0.4691 -0.0975 0.8777
vn -0.1374 0.9565 0.2571
vn -0.4513 -0.2890 0.8443
vn -0.2230 0.8810 0.4173
vn -0.4162 -0.4696 0.7786
vn -0.2999 0.7715 0.5611
vn -0.3651 -0.6326 0.6831
vn -0.3651 0.6326 0.6831
vn -0.2999 -0.7715 0.5611
vn -0.4162 0.4696 0.7786
vn -0.2230 -0.8810 0.4173
vn -0.4513 0.2890 0.8443
vn -0.1374 -0.9565 0.2571
vn -0.4913 -0.6326 0.5987
vn -0.4913 0.6326 0.5987
vn -0.4036 -0.7715 0.4918
vn -0.5601 0.4696 0.6825
vn -0.3002 -0.8810 0.3658
vn -0.6073 0.2890 0.7400
vn -0.1850 -0.9565 0.2254
vn -0.6314 0.0975 0.7693
vn -0.0625 0.9951 0.0761
vn -0.0625 -0.9951 0.0761
vn -0.6314 -0.0975 0.7693
vn -0.1850 0.9565 0.2254
vn -0.6073 -0.2890 0.7400
vn -0.3002 0.8810 0.3658
vn -0.5601 -0.4696 0.6825
vn -0.4036 0.7715 0.4918
vn -0.0761 -0.9951 0.0625
vn -0.7693 -0.0975 0.6314
vn -0.2254 0.9565 0.1850
vn -0.7400 -0.2890 0.6073
vn -0.3658 0.8810 0.3002
vn -0.6825 -0.4696 0.5601
vn -0.4918 0.7715 0.4036
vn -0.5987 -0.6326 0.4913
vn -0.5987 0.6326 0.4913
vn -0.4918 -0.7715 0.4036
vn -0.6825 0.4696 0.5601
vn -0.3658 -0.8810 0.3002
vn -0.7400 0.2890 0.6073
vn -0.2254 -0.9566 0.1850
vn -0.7693 0.0975 0.6314
vn -0.0761 0.9951 0.0625
vn -0.5611 -0.7715 0.2999
vn -0.7786 0.4696 0.4162
vn -0.4173 -0.8810 0.2231
vn -0.8443 0.2890 0.4513
vn -0.2571 -0.9565 0.1374
vn -0.8777 0.0975 0.4691
vn -0.0869 0.9951 0.0464
vn -0.0869 -0.9951 0.0464
vn -0.8777 -0.0975 0.4691
vn -0.2571 0.9565 0.1374
vn -0.8443 -0.2890 0.4513
vn -0.4173 0.8810 0.2230
vn -0.7786 -0.4696 0.4162
vn -0.5611 0.7715 0.2999
vn -0.6831 -0.6326 0.3651
vn -0.6831 0.6326 0.3651
vn -0.2790 0.9565 0.0846
vn -0.9161 -0.2890 0.2779
vn -0.4528 0.8810 0.1374
vn -0.8448 -0.4696 0.2563
vn -0.6088 0.7715 0.1847
vn -0.7412 -0.6326 0.2248
vn -0.7412 0.6326 0.2248
vn -0.6088 -0.7715 0.1847
vn -0.8448 0.4696 0.2563
vn -0.4528 -0.8810 0.1374
vn -0.9161 0.2890 0.2779
vn -0.2790 -0.9565 0.0846
vn -0.9524 0.0975 0.2889
vn -0.0942 0.9951 0.0286
vn -0.0942 -0.9951 0.0286
vn -0.9524 -0.0975 0.2889
vn -0.8786 0.4696 0.0865
vn -0.4709 -0.8810 0.0464
vn -0.9527 0.2890 0.0938
vn -0.2902 -0.9565 0.0286
vn -0.9904 0.0975 0.0975
vn -0.0980 0.9951 0.0097
vn -0.0980 -0.9951 0.0097
vn -0.9904 -0.0975 0.0976
vn -0.2902 0.9565 0.0286
vn -0.9527 -0.2890 0.0938
vn -0.4709 0.8810 0.0464
vn -0.8786 -0.4696 0.0865
vn -0.6332 0.7715 0.0624
vn -0.7708 -0.6326 0.0759
vn -0.7708 0.6326 0.0759
vn -0.6332 -0.7715 0.0624
vn -0.9527 -0.2890 -0.0938
vn -0.4709 0.8810 -0.0464
vn -0.8786 -0.4696 -0.0865
vn -0.6332 0.7715 -0.0624
vn -0.7708 -0.6326 -0.0759
vn -0.7708 0.6326 -0.0759
vn -0.6332 -0.7715 -0.0624
vn -0.8786 0.4696 -0.0865
vn -0.4709 -0.8810 -0.0464
vn -0.9527 0.2890 -0.0938
vn -0.2902 -0.9565 -0.0286
vn -0.9904 0.0975 -0.0975
vn -0.0980 0.9951 -0.0097
vn -0.0980 -0.9951 -0.0097
vn -0.9904 -0.0975 -0.0976
vn -0.2902 0.9565 -0.0286
vn -0.4528 -0.8810 -0.1374
vn -0.9161 0.2890 -0.2779
vn -0.2790 -0.9565 -0.0846
vn -0.9524 0.0975 -0.2889
vn -0.0942 0.9951 -0.0286
vn -0.0942 -0.9951 -0.0286
vn -0.9524 -0.0975 -0.2889
vn -0.2790 0.9565 -0.0846
vn -0.9161 -0.2890 -0.2779
vn -0.4528 0.8810 -0.1374
vn -0.8448 -0.4696 -0.2563
vn -0.6088 0.7715 -0.1847
vn -0.7412 -0.6326 -0.2248
vn -0.7412 0.6326 -0.2248
vn -0.6088 -0.7715 -0.1847
vn -0.8448 0.4696 -0.2563
vn -0.4173 0.8810 -0.2231
vn -0.7786 -0.4696 -0.4162
vn -0.5611 0.7715 -0.2999
vn -0.6831 -0.6326 -0.3651
vn -0.6831 0.6326 -0.3651
vn -0.5611 -0.7715 -0.2999
vn -0.7786 0.4696 -0.4162
vn -0.4173 -0.8810 -0.2231
vn -0.8443 0.2890 -0.4513
vn -0.2571 -0.9565 -0.1374
vn -0.8777 0.0975 -0.4691
vn -0.0869 0.9951 -0.0464
vn -0.0869 -0.9951 -0.0464
vn -0.8777 -0.0975 -0.4691
vn -0.2571 0.9565 -0.1374
vn -0.8443 -0.2890 -0.4513
vn -0.7400 0.2890 -0.6073
vn -0.2254 -0.9565 -0.1850
vn -0.7693 0.0975 -0.6314
vn -0.0761 0.9951 -0.0625
vn -0.0761 -0.9951 -0.0625
vn -0.7693 -0.0975 -0.6314
vn -0.2254 0.9565 -0.1850
vn -0.7400 -0.2890 -0.6073
vn -0.3658 0.8810 -0.3002
vn -0.6825 -0.4696 -0.5601
vn -0.4918 0.7715 -0.4036
vn -0.5987 -0.6326 -0.4913
vn -0.5987 0.6326 -0.4913
vn -0.4918 -0.7715 -0.4036
vn -0.6825 0.4696 -0.5601
vn -0.3658 -0.8810 -0.3002
vn -0.5601 -0.4696 -0.6825
vn -0.4036 0.7715 -0.4918
vn -0.4913 -0.6326 -0.5987
vn -0.4913 0.6326 -0.5987
vn -0.4036 -0.7715 -0.4918
vn -0.5601 0.4696 -0.6825
vn -0.3002 -0.8810 -0.3658
vn -0.6073 0.2890 -0.7400
vn -0.1850 -0.9565 -0.2254
vn -0.6314 0.0975 -0.7693
vn -0.0625 0.9951 -0.0761
vn -0.0625 -0.9951 -0.0761
vn -0.6314 -0.0975 -0.7693
vn -0.1850 0.9565 -0.2254
vn -0.6073 -0.2890 -0.7400
vn -0.3002 0.8810 -0.3658
vn -0.1374 -0.9565 -0.2571
vn -0.4691 0.0975 -0.8777
vn -0.0464 0.9951 -0.0869
vn -0.0464 -0.9951 -0.0869
vn -0.4691 -0.0975 -0.8777
vn -0.1374 0.9565 -0.2571
vn -0.4513 -0.2890 -0.8443
vn -0.2230 0.8810 -0.4173
vn -0.4162 -0.4696 -0.7786
vn -0.2999 0.7715 -0.5611
vn -0.3651 -0.6326 -0.6831
vn -0.3651 0.6326 -0.6831
vn -0.2999 -0.7715 -0.5611
vn -0.4162 0.4696 -0.7786
vn -0.2230 -0.8810 -0.4173
vn -0.4513 0.2890 -0.8443
vn -0.2248 -0.6326 -0.7412
vn -0.2248 0.6326 -0.7412
vn -0.1847 -0.7715 -0.6088
vn -0.2563 0.4696 -0.8448
vn -0.1374 -0.8810 -0.4528
vn -0.2779 0.2890 -0.9161
vn -0.0846 -0.9565 -0.2790
vn -0.2889 0.0975 -0.9524
vn -0.0286 0.9951 -0.0942
vn -0.0286 -0.9951 -0.0942
vn -0.2889 -0.0975 -0.9524
vn -0.0846 0.9565 -0.2790
vn -0.2779 -0.2890 -0.9161
vn -0.1374 0.8810 -0.4528
vn -0.2563 -0.4696 -0.8448
vn -0.1847 0.7715 -0.6088
vn -0.0097 0.9951 -0.0980
vn -0.0097 -0.9951 -0.0980
vn -0.0976 -0.0975 -0.9904
vn -0.0286 0.9565 -0.2902
vn -0.0938 -0.2890 -0.9527
vn -0.0464 0.8810 -0.4709
vn -0.0865 -0.4696 -0.8786
vn -0.0624 0.7715 -0.6332
vn -0.0759 -0.6326 -0.7708
vn -0.0759 0.6326 -0.7708
vn -0.0624 -0.7715 -0.6332
vn -0.0865 0.4696 -0.8786
vn -0.0464 -0.8810 -0.4709
vn -0.0938 0.2890 -0.9527
vn -0.0286 -0.9565 -0.2902
vn -0.0976 0.0975 -0.9904
vn 0.0975 0.0976 -0.9904
vn 0.0975 -0.0975 -0.9904
vn 0.2231 -0.8810 -0.4173
vn 0.2230 0.8810 -0.4173
vn 0.2254 -0.9565 -0.1850
vn 0.4173 -0.8810 0.2231
vn 0.4173 0.8810 0.2230
vn 0.2231 -0.8810 0.4173
vn -0.0975 0.0975 0.9904
vn -0.0976 -0.0975 0.9904
vn -0.2231 0.8810 0.4173
vn -0.2231 -0.8810 0.4173
vn -0.2254 -0.9565 0.1850
vn -0.4173 -0.8810 0.2230
vn -0.9904 0.0975 0.0976
vn -0.9904 -0.0975 0.0975
vn -0.9904 0.0975 -0.0976
vn -0.9904 -0.0975 -0.0975
vt 0.796158 0.614254
vt 0.781381 0.530955
vt 0.809924 0.557645
vt 0.572092 0.866303
vt 0.500000 0.852927
vt 0.570836 0.854176
vt 1.000000 0.147073
vt 0.946211 0.180902
vt 0.939352 0.171086
vt 0.795013 0.474698
vt 0.822809 0.500641
vt 0.644459 0.853489
vt 0.633113 0.832150
vt 0.809039 0.418631
vt 0.835686 0.443633
vt 0.698702 0.820011
vt 0.678284 0.794229
vt 0.824421 0.363227
vt 0.849420 0.387010
vt 0.735406 0.774957
vt 0.709967 0.747539
vt 0.842459 0.309144
vt 0.865097 0.331269
vt 0.761083 0.724006
vt 0.733284 0.696185
vt 0.865153 0.257460
vt 0.884331 0.277181
vt 0.780423 0.669968
vt 0.751683 0.642284
vt 0.895787 0.210159
vt 0.909823 0.226138
vt 0.767266 0.586978
vt 0.845924 0.235518
vt 0.882377 0.192274
vt 0.724143 0.614539
vt 0.739209 0.559159
vt 0.933764 0.160253
vt 0.753308 0.503295
vt 0.567335 0.842432
vt 0.767356 0.447404
vt 0.620688 0.812211
vt 0.782255 0.391941
vt 0.658654 0.769963
vt 0.799107 0.337468
vt 0.686025 0.721182
vt 0.819494 0.284837
vt 0.706970 0.668847
vt 0.754917 0.364305
vt 0.773048 0.310353
vt 0.662930 0.696425
vt 0.795802 0.258812
vt 0.681524 0.642709
vt 0.826410 0.211660
vt 0.697270 0.587556
vt 0.869740 0.172701
vt 0.711526 0.531666
vt 0.929810 0.148649
vt 0.725286 0.475532
vt 0.562096 0.831393
vt 0.739428 0.419585
vt 0.607445 0.793906
vt 0.639383 0.747540
vt 0.927970 0.136580
vt 0.683797 0.505330
vt 0.696891 0.448533
vt 0.555510 0.821316
vt 0.710775 0.392099
vt 0.593547 0.777458
vt 0.726514 0.336527
vt 0.620209 0.727267
vt 0.745665 0.282576
vt 0.640244 0.673743
vt 0.770791 0.231592
vt 0.656482 0.618405
vt 0.806230 0.186205
vt 0.670623 0.562090
vt 0.858107 0.151671
vt 0.617673 0.653576
vt 0.743570 0.203795
vt 0.631510 0.596521
vt 0.784742 0.159502
vt 0.643857 0.538854
vt 0.847882 0.129432
vt 0.655661 0.480965
vt 0.928865 0.124426
vt 0.667727 0.423184
vt 0.547877 0.812414
vt 0.680928 0.365867
vt 0.579107 0.763075
vt 0.696450 0.309511
vt 0.600973 0.709437
vt 0.716196 0.254949
vt 0.626844 0.459381
vt 0.637460 0.400404
vt 0.539437 0.804858
vt 0.933273 0.112681
vt 0.649441 0.341895
vt 0.564219 0.750948
vt 0.664079 0.284309
vt 0.581585 0.694327
vt 0.683667 0.228485
vt 0.595033 0.636326
vt 0.712779 0.176229
vt 0.606384 0.577600
vt 0.760778 0.131958
vt 0.616726 0.518529
vt 0.839854 0.106258
vt 0.676342 0.150064
vt 0.572225 0.622360
vt 0.580976 0.562144
vt 0.731972 0.104140
vt 0.589089 0.501758
vt 0.835773 0.082490
vt 0.597184 0.441368
vt 0.942067 0.101984
vt 0.605879 0.381137
vt 0.530386 0.798788
vt 0.615979 0.321280
vt 0.548965 0.741248
vt 0.628804 0.262158
vt 0.562010 0.682186
vt 0.646942 0.204495
vt 0.520894 0.794315
vt 0.955948 0.093139
vt 0.580438 0.305168
vt 0.533432 0.734116
vt 0.590280 0.244467
vt 0.542252 0.673225
vt 0.604986 0.184675
vt 0.549217 0.611993
vt 0.631342 0.127127
vt 0.555252 0.550589
vt 0.692844 0.077070
vt 0.560920 0.489119
vt 0.840273 0.058685
vt 0.566665 0.427662
vt 0.572952 0.366305
vt 0.526038 0.605471
vt 0.529256 0.543284
vt 0.574940 0.110257
vt 0.629242 0.053326
vt 0.532305 0.481081
vt 0.869227 0.036310
vt 0.535426 0.418884
vt 0.974860 0.087068
vt 0.538886 0.356721
vt 0.511111 0.791515
vt 0.543077 0.294630
vt 0.517705 0.729659
vt 0.548730 0.232681
vt 0.522350 0.667612
vt 0.557557 0.171044
vt 0.504582 0.290474
vt 0.501875 0.727946
vt 0.505201 0.227981
vt 0.502365 0.665451
vt 0.506186 0.165491
vt 0.502756 0.602955
vt 0.508220 0.103012
vt 0.503098 0.540459
vt 0.516169 0.040594
vt 0.503422 0.477962
vt 0.979729 0.022284
vt 0.503756 0.415466
vt 0.997255 0.084602
vt 0.504128 0.352969
vt 0.501178 0.790439
vt 0.440111 0.107547
vt 0.392349 0.048858
vt 0.474510 0.479891
vt 1.115386 0.031696
vt 0.472039 0.417581
vt 1.020063 0.086135
vt 0.469293 0.355292
vt 0.491229 0.791104
vt 0.465959 0.293049
vt 0.486033 0.729004
vt 0.461443 0.230896
vt 0.482372 0.666786
vt 0.454340 0.168944
vt 0.479462 0.604510
vt 0.476921 0.542206
vt 0.419298 0.241095
vt 0.462444 0.671591
vt 0.405759 0.180815
vt 0.456251 0.610096
vt 0.380901 0.122461
vt 0.450875 0.548467
vt 0.319148 0.070992
vt 0.445813 0.486788
vt 0.115386 0.031696
vt 0.156198 0.053165
vt 0.440667 0.425121
vt 0.020063 0.086135
vt 0.040004 0.091418
vt 0.435015 0.363538
vt 0.481399 0.793499
vt 0.000000 0.147073
vt 0.428252 0.302136
vt 0.470273 0.732817
vt 0.164229 0.076834
vt 0.417527 0.498376
vt 0.409959 0.437712
vt 0.055125 0.099691
vt 0.401790 0.377196
vt 0.471825 0.797583
vt 0.392241 0.317021
vt 0.454686 0.739325
vt 0.380011 0.257516
vt 0.442648 0.679772
vt 0.362480 0.199359
vt 0.433199 0.619573
vt 0.333405 0.144260
vt 0.425080 0.559044
vt 0.276030 0.097614
vt 0.423027 0.691179
vt 0.343983 0.278744
vt 0.324597 0.222531
vt 0.410344 0.632714
vt 0.295234 0.169860
vt 0.399597 0.573614
vt 0.245468 0.125377
vt 0.389762 0.514219
vt 0.161568 0.100675
vt 0.380092 0.454770
vt 0.065075 0.110030
vt 0.369885 0.395495
vt 0.462656 0.803283
vt 0.358286 0.336674
vt 0.439359 0.748429
vt 0.362520 0.533759
vt 0.351085 0.475580
vt 0.070442 0.121591
vt 0.339322 0.417529
vt 0.454054 0.810499
vt 0.326356 0.359954
vt 0.424377 0.759996
vt 0.310974 0.303344
vt 0.403597 0.705608
vt 0.291181 0.248542
vt 0.387670 0.649218
vt 0.263326 0.197218
vt 0.374412 0.591759
vt 0.220641 0.153046
vt 0.154258 0.124025
vt 0.280423 0.330032
vt 0.261083 0.275994
vt 0.365097 0.668731
vt 0.235406 0.225043
vt 0.349420 0.612990
vt 0.198702 0.179989
vt 0.335686 0.556367
vt 0.144459 0.146511
vt 0.322809 0.499359
vt 0.072092 0.133697
vt 0.309923 0.442355
vt 0.446210 0.819098
vt 0.296158 0.385746
vt 0.409823 0.773862
vt 0.384331 0.722819
vt 0.070836 0.145824
vt 0.295013 0.525302
vt 0.281381 0.469045
vt 0.439352 0.828914
vt 0.267266 0.413022
vt 0.395787 0.789841
vt 0.251683 0.357716
vt 0.365153 0.742540
vt 0.233283 0.303815
vt 0.342459 0.690856
vt 0.209967 0.252461
vt 0.324421 0.636773
vt 0.178284 0.205771
vt 0.309038 0.581369
vt 0.133113 0.167850
vt 0.319494 0.715163
vt 0.186025 0.278818
vt 0.299107 0.662532
vt 0.158654 0.230037
vt 0.282255 0.608059
vt 0.120688 0.187789
vt 0.267356 0.552596
vt 0.067335 0.157568
vt 0.253308 0.496706
vt 0.433763 0.839747
vt 0.239209 0.440841
vt 0.382377 0.807726
vt 0.224143 0.385461
vt 0.345924 0.764482
vt 0.206970 0.331153
vt 0.239427 0.580415
vt 0.225286 0.524468
vt 0.429810 0.851350
vt 0.062096 0.168607
vt 0.211526 0.468334
vt 0.369740 0.827299
vt 0.197270 0.412444
vt 0.326410 0.788340
vt 0.181524 0.357291
vt 0.295802 0.741188
vt 0.162930 0.303575
vt 0.273048 0.689647
vt 0.139383 0.252460
vt 0.254917 0.635695
vt 0.107445 0.206094
vt 0.140244 0.326256
vt 0.270791 0.768408
vt 0.245665 0.717424
vt 0.120209 0.272733
vt 0.226514 0.663473
vt 0.093547 0.222542
vt 0.210775 0.607901
vt 0.055510 0.178684
vt 0.196891 0.551467
vt 0.427970 0.863420
vt 0.183797 0.494670
vt 0.358107 0.848329
vt 0.170623 0.437910
vt 0.306230 0.813795
vt 0.156482 0.381595
vt 0.047877 0.187586
vt 0.155661 0.519035
vt 0.347882 0.870568
vt 0.143857 0.461146
vt 0.284742 0.840498
vt 0.131510 0.403479
vt 0.243570 0.796205
vt 0.117673 0.346424
vt 0.216196 0.745051
vt 0.100973 0.290563
vt 0.196450 0.690489
vt 0.079107 0.236925
vt 0.180928 0.634133
vt 0.167726 0.576816
vt 0.428865 0.875574
vt 0.095033 0.363674
vt 0.081585 0.305673
vt 0.164079 0.715691
vt 0.064219 0.249052
vt 0.149441 0.658105
vt 0.039437 0.195142
vt 0.137460 0.599596
vt 0.433273 0.887319
vt 0.126844 0.540619
vt 0.339854 0.893742
vt 0.116726 0.481471
vt 0.260778 0.868042
vt 0.106384 0.422400
vt 0.212779 0.823771
vt 0.183667 0.771515
vt 0.335773 0.917510
vt 0.089089 0.498242
vt 0.231972 0.895860
vt 0.080976 0.437856
vt 0.176342 0.849936
vt 0.072225 0.377640
vt 0.146942 0.795505
vt 0.062010 0.317814
vt 0.128804 0.737842
vt 0.048965 0.258752
vt 0.115979 0.678720
vt 0.030386 0.201212
vt 0.105879 0.618863
vt 0.442067 0.898016
vt 0.097184 0.558632
vt 0.090280 0.755533
vt 0.033432 0.265884
vt 0.080438 0.694832
vt 0.020894 0.205685
vt 0.072952 0.633695
vt 0.455948 0.906861
vt 0.066665 0.572338
vt 0.340273 0.941315
vt 0.060920 0.510881
vt 0.192844 0.922930
vt 0.055252 0.449411
vt 0.131342 0.872873
vt 0.049217 0.388007
vt 0.104986 0.815325
vt 0.042252 0.326774
vt 0.032305 0.518919
vt 0.369227 0.963690
vt 0.129242 0.946674
vt 0.029256 0.456716
vt 0.074940 0.889743
vt 0.026038 0.394529
vt 0.057557 0.828956
vt 0.022350 0.332388
vt 0.048730 0.767319
vt 0.017705 0.270341
vt 0.043077 0.705370
vt 0.011111 0.208485
vt 0.038886 0.643279
vt 0.474860 0.912932
vt 0.035426 0.581115
vt 0.001875 0.272054
vt 0.005201 0.772019
vt 0.004582 0.709526
vt 0.001178 0.209561
vt 0.004128 0.647030
vt 0.497255 0.915398
vt 0.003756 0.584534
vt 0.479729 0.977716
vt 0.003422 0.522038
vt 0.016169 0.959406
vt 0.003098 0.459541
vt 0.008220 0.896988
vt 0.002756 0.397045
vt 0.006186 0.834509
vt 0.002365 0.334549
vt 0.892349 0.951142
vt 1.016169 0.959406
vt 1.003098 0.459541
vt 0.974510 0.520109
vt 0.976921 0.457794
vt 0.940111 0.892453
vt 1.008220 0.896988
vt 0.979462 0.395490
vt 1.002756 0.397045
vt 1.006186 0.834509
vt 0.954340 0.831056
vt 1.002365 0.334549
vt 0.982372 0.333214
vt 0.961443 0.769104
vt 1.005201 0.772019
vt 1.001875 0.272054
vt 0.986033 0.270996
vt 1.004582 0.709526
vt 0.965959 0.706951
vt 0.991229 0.208896
vt 1.001178 0.209561
vt 1.004128 0.647030
vt 0.969293 0.644708
vt 0.520063 0.913865
vt 0.972039 0.582419
vt 1.003756 0.584534
vt 0.615386 0.968304
vt 1.003422 0.522038
vt 0.919298 0.758905
vt 0.928252 0.697864
vt 0.981399 0.206501
vt 0.935015 0.636462
vt 0.540004 0.908582
vt 0.940667 0.574879
vt 0.656198 0.946835
vt 0.945813 0.513212
vt 0.819148 0.929008
vt 0.950875 0.451533
vt 0.880901 0.877539
vt 0.956251 0.389904
vt 0.905759 0.819185
vt 0.962444 0.328409
vt 0.970273 0.267183
vt 0.917527 0.501624
vt 0.925080 0.440956
vt 0.833405 0.855740
vt 0.933199 0.380427
vt 0.862480 0.800641
vt 0.942648 0.320228
vt 0.880011 0.742484
vt 0.954686 0.260675
vt 0.892241 0.682979
vt 0.971825 0.202417
vt 0.901790 0.622804
vt 0.555125 0.900309
vt 0.909959 0.562288
vt 0.664228 0.923166
vt 0.776030 0.902386
vt 0.962656 0.196717
vt 0.858286 0.663326
vt 0.869885 0.604505
vt 0.565075 0.889971
vt 0.880092 0.545230
vt 0.661568 0.899325
vt 0.889762 0.485781
vt 0.745468 0.874623
vt 0.899597 0.426386
vt 0.795234 0.830140
vt 0.910344 0.367286
vt 0.824597 0.777469
vt 0.923027 0.308821
vt 0.843983 0.721256
vt 0.939359 0.251570
vt 0.887670 0.350782
vt 0.763326 0.802782
vt 0.791181 0.751458
vt 0.903597 0.294392
vt 0.810974 0.696656
vt 0.924377 0.240004
vt 0.826356 0.640046
vt 0.954054 0.189501
vt 0.839322 0.582471
vt 0.570442 0.878409
vt 0.851085 0.524420
vt 0.654258 0.875976
vt 0.862520 0.466241
vt 0.720641 0.846954
vt 0.874412 0.408241
s 0
f 4/1/1 16/2/1 5/3/1
f 474/4/2 1/5/2 9/6/2
f 8/7/3 482/8/3 23/9/3
f 5/3/4 17/10/4 6/11/4
f 475/12/5 9/6/5 10/13/5
f 6/11/6 18/14/6 478/15/6
f 2/16/7 10/13/7 11/17/7
f 478/15/8 19/18/8 7/19/8
f 476/20/9 11/17/9 12/21/9
f 7/19/10 20/22/10 479/23/10
f 3/24/11 12/21/11 13/25/11
f 479/23/12 21/26/12 480/27/12
f 477/28/13 13/25/13 14/29/13
f 480/27/14 22/30/14 481/31/14
f 4/1/15 14/29/15 15/32/15
f 481/31/16 23/9/16 482/8/16
f 22/30/17 36/33/17 37/34/17
f 15/32/18 29/35/18 30/36/18
f 22/30/19 38/37/19 23/9/19
f 15/32/20 31/38/20 16/2/20
f 9/6/21 1/5/21 24/39/21
f 8/7/22 23/9/22 38/37/22
f 16/2/23 32/40/23 17/10/23
f 9/6/24 25/41/24 10/13/24
f 17/10/25 33/42/25 18/14/25
f 10/13/26 26/43/26 11/17/26
f 18/14/27 34/44/27 19/18/27
f 11/17/28 27/45/28 12/21/28
f 19/18/29 35/46/29 20/22/29
f 12/21/30 28/47/30 13/25/30
f 21/26/31 35/46/31 36/33/31
f 13/25/32 29/35/32 14/29/32
f 34/44/33 48/48/33 49/49/33
f 26/43/34 42/50/34 27/45/34
f 35/46/35 49/49/35 50/51/35
f 27/45/36 43/52/36 28/47/36
f 36/33/37 50/51/37 51/53/37
f 28/47/38 44/54/38 29/35/38
f 36/33/39 52/55/39 37/34/39
f 29/35/40 45/56/40 30/36/40
f 37/34/41 53/57/41 38/37/41
f 30/36/42 46/58/42 31/38/42
f 24/39/43 1/5/43 39/59/43
f 8/7/44 38/37/44 53/57/44
f 32/40/45 46/58/45 47/60/45
f 24/39/46 40/61/46 25/41/46
f 32/40/47 48/48/47 33/42/47
f 25/41/48 41/62/48 26/43/48
f 52/55/49 68/63/49 53/57/49
f 46/58/50 60/64/50 61/65/50
f 39/59/51 1/5/51 54/66/51
f 8/7/52 53/57/52 68/63/52
f 46/58/53 62/67/53 47/60/53
f 39/59/54 55/68/54 40/61/54
f 47/60/55 63/69/55 48/48/55
f 40/61/56 56/70/56 41/62/56
f 49/49/57 63/69/57 64/71/57
f 41/62/58 57/72/58 42/50/58
f 49/49/59 65/73/59 50/51/59
f 42/50/60 58/74/60 43/52/60
f 50/51/61 66/75/61 51/53/61
f 43/52/62 59/76/62 44/54/62
f 51/53/63 67/77/63 52/55/63
f 45/56/64 59/76/64 60/64/64
f 56/70/65 72/78/65 57/72/65
f 64/71/66 80/79/66 65/73/66
f 58/74/67 72/78/67 73/80/67
f 65/73/68 81/81/68 66/75/68
f 58/74/69 74/82/69 59/76/69
f 67/77/70 81/81/70 82/83/70
f 60/64/71 74/82/71 75/84/71
f 67/77/72 83/85/72 68/63/72
f 61/65/73 75/84/73 76/86/73
f 54/66/74 1/5/74 69/87/74
f 8/7/75 68/63/75 83/85/75
f 61/65/76 77/88/76 62/67/76
f 54/66/77 70/89/77 55/68/77
f 62/67/78 78/90/78 63/69/78
f 55/68/79 71/91/79 56/70/79
f 64/71/80 78/90/80 79/92/80
f 76/86/81 90/93/81 91/94/81
f 69/87/82 1/5/82 84/95/82
f 8/7/83 83/85/83 98/96/83
f 76/86/84 92/97/84 77/88/84
f 69/87/85 85/98/85 70/89/85
f 77/88/86 93/99/86 78/90/86
f 70/89/87 86/100/87 71/91/87
f 79/92/88 93/99/88 94/101/88
f 71/91/89 87/102/89 72/78/89
f 79/92/90 95/103/90 80/79/90
f 73/80/91 87/102/91 88/104/91
f 80/79/92 96/105/92 81/81/92
f 73/80/93 89/106/93 74/82/93
f 81/81/94 97/107/94 82/83/94
f 75/84/95 89/106/95 90/93/95
f 83/85/96 97/107/96 98/96/96
f 94/101/97 110/108/97 95/103/97
f 88/104/98 102/109/98 103/110/98
f 96/105/99 110/108/99 111/111/99
f 88/104/100 104/112/100 89/106/100
f 97/107/101 111/111/101 112/113/101
f 90/93/102 104/112/102 105/114/102
f 97/107/103 113/115/103 98/96/103
f 91/94/104 105/114/104 106/116/104
f 84/95/105 1/5/105 99/117/105
f 8/7/106 98/96/106 113/115/106
f 91/94/107 107/118/107 92/97/107
f 85/98/108 99/117/108 100/119/108
f 92/97/109 108/120/109 93/99/109
f 85/98/110 101/121/110 86/100/110
f 94/101/111 108/120/111 109/122/111
f 86/100/112 102/109/112 87/102/112
f 99/117/113 1/5/113 114/123/113
f 8/7/114 113/115/114 128/124/114
f 106/116/115 122/125/115 107/118/115
f 100/119/116 114/123/116 115/126/116
f 107/118/117 123/127/117 108/120/117
f 100/119/118 116/128/118 101/121/118
f 109/122/119 123/127/119 124/129/119
f 101/121/120 117/130/120 102/109/120
f 109/122/121 125/131/121 110/108/121
f 103/110/122 117/130/122 118/132/122
f 111/111/123 125/131/123 126/133/123
f 103/110/124 119/134/124 104/112/124
f 111/111/125 127/135/125 112/113/125
f 105/114/126 119/134/126 120/136/126
f 112/113/127 128/124/127 113/115/127
f 106/116/128 120/136/128 121/137/128
f 118/132/129 132/138/129 133/139/129
f 126/133/130 140/140/130 141/141/130
f 118/132/131 134/142/131 119/134/131
f 126/133/132 142/143/132 127/135/132
f 120/136/133 134/142/133 135/144/133
f 127/135/134 143/145/134 128/124/134
f 121/137/135 135/144/135 136/146/135
f 114/123/136 1/5/136 129/147/136
f 8/7/137 128/124/137 143/145/137
f 121/137/138 137/148/138 122/125/138
f 114/123/139 130/149/139 115/126/139
f 122/125/140 138/150/140 123/127/140
f 115/126/141 131/151/141 116/128/141
f 124/129/142 138/150/142 139/152/142
f 116/128/143 132/138/143 117/130/143
f 124/129/144 140/140/144 125/131/144
f 136/146/145 152/153/145 137/148/145
f 129/147/146 145/154/146 130/149/146
f 137/148/147 153/155/147 138/150/147
f 131/151/148 145/154/148 146/156/148
f 139/152/149 153/155/149 154/157/149
f 131/151/150 147/158/150 132/138/150
f 139/152/151 155/159/151 140/140/151
f 133/139/152 147/158/152 148/160/152
f 141/141/153 155/159/153 156/161/153
f 133/139/154 149/162/154 134/142/154
f 141/141/155 157/163/155 142/143/155
f 135/144/156 149/162/156 150/164/156
f 143/145/157 157/163/157 158/165/157
f 136/146/158 150/164/158 151/166/158
f 129/147/159 1/5/159 144/167/159
f 8/7/160 143/145/160 158/165/160
f 156/161/161 170/168/161 171/169/161
f 148/160/162 164/170/162 149/162/162
f 156/161/163 172/171/163 157/163/163
f 150/164/164 164/170/164 165/172/164
f 157/163/165 173/173/165 158/165/165
f 151/166/166 165/172/166 166/174/166
f 144/167/167 1/5/167 159/175/167
f 8/7/168 158/165/168 173/173/168
f 151/166/169 167/176/169 152/153/169
f 144/167/170 160/177/170 145/154/170
f 152/153/171 168/178/171 153/155/171
f 146/156/172 160/177/172 161/179/172
f 154/157/173 168/178/173 169/180/173
f 146/156/174 162/181/174 147/158/174
f 154/157/175 170/168/175 155/159/175
f 148/160/176 162/181/176 163/182/176
f 167/176/177 183/183/177 168/178/177
f 160/177/178 176/184/178 161/179/178
f 169/180/179 183/183/179 184/185/179
f 161/179/180 177/186/180 162/181/180
f 169/180/181 185/187/181 170/168/181
f 163/182/182 177/186/182 178/188/182
f 170/168/183 186/189/183 171/169/183
f 163/182/184 179/190/184 164/170/184
f 172/191/185 186/189/185 187/192/185
f 165/172/186 179/190/186 180/193/186
f 173/194/187 187/192/187 188/195/187
f 166/174/188 180/193/188 181/196/188
f 159/175/189 1/5/189 174/197/189
f 8/198/190 173/194/190 188/195/190
f 166/174/191 182/199/191 167/176/191
f 159/175/192 175/200/192 160/177/192
f 186/189/193 202/201/193 187/192/193
f 180/193/194 194/202/194 195/203/194
f 187/192/195 203/204/195 188/195/195
f 181/196/196 195/203/196 196/205/196
f 174/197/197 1/5/197 189/206/197
f 8/198/198 188/195/198 203/204/198
f 181/196/199 197/207/199 182/199/199
f 175/200/200 189/206/200 190/208/200
f 182/199/201 198/209/201 183/183/201
f 176/184/202 190/208/202 191/210/202
f 184/185/203 198/209/203 199/211/203
f 176/184/204 192/212/204 177/186/204
f 184/185/205 200/213/205 185/187/205
f 178/188/206 192/212/206 193/214/206
f 186/189/207 200/213/207 201/215/207
f 178/188/208 194/202/208 179/190/208
f 190/208/209 206/216/209 191/210/209
f 199/211/210 213/217/210 214/218/210
f 191/210/211 207/219/211 192/212/211
f 199/211/212 215/220/212 200/213/212
f 193/214/213 207/219/213 208/221/213
f 201/215/214 215/220/214 216/222/214
f 193/214/215 209/223/215 194/202/215
f 201/215/216 217/224/216 202/201/216
f 195/203/217 209/223/217 210/225/217
f 202/201/218 218/226/218 203/204/218
f 196/205/219 210/225/219 211/227/219
f 189/206/220 1/5/220 204/228/220
f 8/198/221 203/204/221 218/226/221
f 196/205/222 212/229/222 197/207/222
f 189/206/223 205/230/223 190/208/223
f 197/207/224 213/217/224 198/209/224
f 210/225/225 224/231/225 225/232/225
f 217/224/226 233/233/226 218/226/226
f 211/227/227 225/232/227 226/234/227
f 204/228/228 1/5/228 219/235/228
f 8/198/229 218/226/229 233/233/229
f 211/227/230 227/236/230 212/229/230
f 204/228/231 220/237/231 205/230/231
f 212/229/232 228/238/232 213/217/232
f 205/230/233 221/239/233 206/216/233
f 214/218/234 228/238/234 229/240/234
f 206/216/235 222/241/235 207/219/235
f 214/218/236 230/242/236 215/220/236
f 208/221/237 222/241/237 223/243/237
f 216/222/238 230/242/238 231/244/238
f 208/221/239 224/231/239 209/223/239
f 216/222/240 232/245/240 217/224/240
f 229/240/241 243/246/241 244/247/241
f 221/239/242 237/248/242 222/241/242
f 229/240/243 245/249/243 230/242/243
f 223/243/244 237/248/244 238/250/244
f 231/244/245 245/249/245 246/251/245
f 223/243/246 239/252/246 224/231/246
f 231/244/247 247/253/247 232/245/247
f 225/232/248 239/252/248 240/254/248
f 233/233/249 247/253/249 248/255/249
f 226/234/250 240/254/250 241/256/250
f 219/235/251 1/5/251 234/257/251
f 8/198/252 233/233/252 248/255/252
f 226/234/253 242/258/253 227/236/253
f 219/235/254 235/259/254 220/237/254
f 227/236/255 243/246/255 228/238/255
f 221/239/256 235/259/256 236/260/256
f 247/253/257 263/261/257 248/255/257
f 241/256/258 255/262/258 256/263/258
f 234/257/259 1/5/259 249/264/259
f 8/198/260 248/255/260 263/261/260
f 241/256/261 257/265/261 242/258/261
f 234/257/262 250/266/262 235/259/262
f 242/258/263 258/267/263 243/246/263
f 235/259/264 251/268/264 236/260/264
f 244/247/265 258/267/265 259/269/265
f 236/260/266 252/270/266 237/248/266
f 244/247/267 260/271/267 245/249/267
f 238/250/268 252/270/268 253/272/268
f 246/251/269 260/271/269 261/273/269
f 238/250/270 254/274/270 239/252/270
f 246/251/271 262/275/271 247/253/271
f 240/254/272 254/274/272 255/262/272
f 251/268/273 267/276/273 252/270/273
f 259/269/274 275/277/274 260/271/274
f 253/272/275 267/276/275 268/278/275
f 261/273/276 275/277/276 276/279/276
f 253/272/277 269/280/277 254/274/277
f 261/273/278 277/281/278 262/275/278
f 255/262/279 269/280/279 270/282/279
f 262/275/280 278/283/280 263/261/280
f 256/263/281 270/282/281 271/284/281
f 249/264/282 1/5/282 264/285/282
f 8/198/283 263/261/283 278/283/283
f 256/263/284 272/286/284 257/265/284
f 250/266/285 264/285/285 265/287/285
f 257/265/286 273/288/286 258/267/286
f 250/266/287 266/289/287 251/268/287
f 259/269/288 273/288/288 274/290/288
f 271/284/289 285/291/289 286/292/289
f 264/285/290 1/5/290 279/293/290
f 8/198/291 278/283/291 293/294/291
f 271/284/292 287/295/292 272/286/292
f 265/287/293 279/293/293 280/296/293
f 272/286/294 288/297/294 273/288/294
f 265/287/295 281/298/295 266/289/295
f 274/290/296 288/297/296 289/299/296
f 266/289/297 282/300/297 267/276/297
f 274/290/298 290/301/298 275/277/298
f 268/278/299 282/300/299 283/302/299
f 276/279/300 290/301/300 291/303/300
f 268/278/301 284/304/301 269/280/301
f 276/279/302 292/305/302 277/281/302
f 270/282/303 284/304/303 285/291/303
f 278/283/304 292/305/304 293/294/304
f 289/299/305 305/306/305 290/301/305
f 283/302/306 297/307/306 298/308/306
f 291/303/307 305/306/307 306/309/307
f 283/302/308 299/310/308 284/304/308
f 291/303/309 307/311/309 292/305/309
f 285/291/310 299/310/310 300/312/310
f 293/294/311 307/311/311 308/313/311
f 286/292/312 300/312/312 301/314/312
f 279/293/313 1/5/313 294/315/313
f 8/198/314 293/294/314 308/313/314
f 286/292/315 302/316/315 287/295/315
f 279/293/316 295/317/316 280/296/316
f 287/295/317 303/318/317 288/297/317
f 280/296/318 296/319/318 281/298/318
f 289/299/319 303/318/319 304/320/319
f 281/298/320 297/307/320 282/300/320
f 8/198/321 308/313/321 323/321/321
f 301/314/322 317/322/322 302/316/322
f 294/315/323 310/323/323 295/317/323
f 302/316/324 318/324/324 303/318/324
f 295/317/325 311/325/325 296/319/325
f 304/320/326 318/324/326 319/326/326
f 296/319/327 312/327/327 297/307/327
f 304/320/328 320/328/328 305/306/328
f 298/308/329 312/327/329 313/329/329
f 306/309/330 320/328/330 321/330/330
f 298/308/331 314/331/331 299/310/331
f 306/309/332 322/332/332 307/311/332
f 300/312/333 314/331/333 315/333/333
f 307/311/334 323/321/334 308/313/334
f 301/314/335 315/333/335 316/334/335
f 294/315/336 1/5/336 309/335/336
f 321/330/337 335/336/337 336/337/337
f 313/329/338 329/338/338 314/331/338
f 321/330/339 337/339/339 322/332/339
f 315/333/340 329/338/340 330/340/340
f 322/332/341 338/341/341 323/321/341
f 316/334/342 330/340/342 331/342/342
f 309/335/343 1/5/343 324/343/343
f 8/198/344 323/321/344 338/341/344
f 316/334/345 332/344/345 317/322/345
f 309/335/346 325/345/346 310/323/346
f 317/322/347 333/346/347 318/324/347
f 310/323/348 326/347/348 311/325/348
f 319/326/349 333/346/349 334/348/349
f 311/325/350 327/349/350 312/327/350
f 319/326/351 335/336/351 320/328/351
f 312/327/352 328/350/352 313/329/352
f 324/343/353 340/351/353 325/345/353
f 332/344/354 348/352/354 333/346/354
f 325/345/355 341/353/355 326/347/355
f 334/348/356 348/352/356 349/354/356
f 326/347/357 342/355/357 327/349/357
f 334/348/358 350/356/358 335/336/358
f 328/350/359 342/355/359 343/357/359
f 336/337/360 350/356/360 351/358/360
f 328/350/361 344/359/361 329/338/361
f 336/337/362 352/360/362 337/339/362
f 330/340/363 344/359/363 345/361/363
f 337/339/364 353/362/364 338/341/364
f 331/342/365 345/361/365 346/363/365
f 324/343/366 1/5/366 339/364/366
f 8/198/367 338/341/367 353/362/367
f 331/342/368 347/365/368 332/344/368
f 343/357/369 359/366/369 344/359/369
f 351/358/370 367/367/370 352/360/370
f 345/361/371 359/366/371 360/368/371
f 352/360/372 368/369/372 353/362/372
f 346/363/373 360/368/373 361/370/373
f 339/364/374 1/5/374 354/371/374
f 8/198/375 353/362/375 368/369/375
f 346/363/376 362/372/376 347/365/376
f 339/364/377 355/373/377 340/351/377
f 347/365/378 363/374/378 348/352/378
f 341/353/379 355/373/379 356/375/379
f 349/354/380 363/374/380 364/376/380
f 341/353/381 357/377/381 342/355/381
f 349/354/382 365/378/382 350/356/382
f 343/357/383 357/377/383 358/379/383
f 351/358/384 365/378/384 366/380/384
f 362/372/385 378/381/385 363/374/385
f 356/375/386 370/382/386 371/383/386
f 364/376/387 378/381/387 379/384/387
f 356/375/388 372/385/388 357/377/388
f 364/376/389 380/386/389 365/378/389
f 358/379/390 372/385/390 373/387/390
f 366/380/391 380/386/391 381/388/391
f 358/379/392 374/389/392 359/366/392
f 366/380/393 382/390/393 367/367/393
f 360/368/394 374/389/394 375/391/394
f 367/367/395 383/392/395 368/369/395
f 361/370/396 375/391/396 376/393/396
f 354/371/397 1/5/397 369/394/397
f 8/198/398 368/369/398 383/392/398
f 361/370/399 377/395/399 362/372/399
f 354/371/400 370/382/400 355/373/400
f 381/388/401 397/396/401 382/390/401
f 375/391/402 389/397/402 390/398/402
f 382/390/403 398/399/403 383/392/403
f 376/393/404 390/398/404 391/400/404
f 369/394/405 1/5/405 384/401/405
f 8/198/406 383/392/406 398/399/406
f 376/393/407 392/402/407 377/395/407
f 369/394/408 385/403/408 370/382/408
f 377/395/409 393/404/409 378/381/409
f 371/383/410 385/403/410 386/405/410
f 379/384/411 393/404/411 394/406/411
f 371/383/412 387/407/412 372/385/412
f 379/384/413 395/408/413 380/386/413
f 373/387/414 387/407/414 388/409/414
f 381/388/415 395/408/415 396/410/415
f 373/387/416 389/397/416 374/389/416
f 385/403/417 401/411/417 386/412/417
f 394/413/418 408/414/418 409/415/418
f 386/412/419 402/416/419 387/417/419
f 394/413/420 410/418/420 395/419/420
f 388/420/421 402/416/421 403/421/421
f 396/422/422 410/418/422 411/423/422
f 388/420/423 404/424/423 389/425/423
f 397/426/424 411/423/424 412/427/424
f 390/428/425 404/424/425 405/429/425
f 397/426/426 413/430/426 398/431/426
f 391/432/427 405/429/427 406/433/427
f 384/401/428 1/5/428 399/434/428
f 8/7/429 398/431/429 413/430/429
f 391/432/430 407/435/430 392/436/430
f 385/403/431 399/434/431 400/437/431
f 392/436/432 408/414/432 393/438/432
f 405/429/433 419/439/433 420/440/433
f 412/427/434 428/441/434 413/430/434
f 406/433/435 420/440/435 421/442/435
f 399/434/436 1/5/436 414/443/436
f 8/7/437 413/430/437 428/441/437
f 406/433/438 422/444/438 407/435/438
f 399/434/439 415/445/439 400/437/439
f 407/435/440 423/446/440 408/414/440
f 401/411/441 415/445/441 416/447/441
f 409/415/442 423/446/442 424/448/442
f 401/411/443 417/449/443 402/416/443
f 409/415/444 425/450/444 410/418/444
f 403/421/445 417/449/445 418/451/445
f 411/423/446 425/450/446 426/452/446
f 403/421/447 419/439/447 404/424/447
f 411/423/448 427/453/448 412/427/448
f 424/448/449 438/454/449 439/455/449
f 416/447/450 432/456/450 417/449/450
f 424/448/451 440/457/451 425/450/451
f 418/451/452 432/456/452 433/458/452
f 426/452/453 440/457/453 441/459/453
f 418/451/454 434/460/454 419/439/454
f 426/452/455 442/461/455 427/453/455
f 420/440/456 434/460/456 435/462/456
f 427/453/457 443/463/457 428/441/457
f 421/442/458 435/462/458 436/464/458
f 414/443/459 1/5/459 429/465/459
f 8/7/460 428/441/460 443/463/460
f 421/442/461 437/466/461 422/444/461
f 414/443/462 430/467/462 415/445/462
f 422/444/463 438/454/463 423/446/463
f 416/447/464 430/467/464 431/468/464
f 442/461/465 458/469/465 443/463/465
f 436/464/466 450/470/466 451/471/466
f 429/465/467 1/5/467 444/472/467
f 8/7/468 443/463/468 458/469/468
f 436/464/469 452/473/469 437/466/469
f 430/467/470 444/472/470 445/474/470
f 437/466/471 453/475/471 438/454/471
f 430/467/472 446/476/472 431/468/472
f 439/455/473 453/475/473 454/477/473
f 431/468/474 447/478/474 432/456/474
f 439/455/475 455/479/475 440/457/475
f 433/458/476 447/478/476 448/480/476
f 441/459/477 455/479/477 456/481/477
f 433/458/478 449/482/478 434/460/478
f 441/459/479 457/483/479 442/461/479
f 435/462/480 449/482/480 450/470/480
f 454/477/481 470/484/481 455/479/481
f 448/480/482 462/485/482 463/486/482
f 456/481/483 470/484/483 471/487/483
f 448/480/484 464/488/484 449/482/484
f 456/481/485 472/489/485 457/483/485
f 450/470/486 464/488/486 465/490/486
f 458/469/487 472/489/487 473/491/487
f 451/471/488 465/490/488 466/492/488
f 444/472/489 1/5/489 459/493/489
f 8/7/490 458/469/490 473/491/490
f 451/471/491 467/494/491 452/473/491
f 444/472/492 460/495/492 445/474/492
f 452/473/493 468/496/493 453/475/493
f 446/476/494 460/495/494 461/497/494
f 454/477/495 468/496/495 469/498/495
f 446/476/496 462/485/496 447/478/496
f 459/493/497 1/5/497 474/4/497
f 8/7/498 473/491/498 482/8/498
f 466/492/499 6/11/499 467/494/499
f 460/495/500 474/4/500 475/12/500
f 467/494/501 478/15/501 468/496/501
f 461/497/502 475/12/502 2/16/502
f 468/496/503 7/19/503 469/498/503
f 462/485/504 2/16/504 476/20/504
f 469/498/505 479/23/505 470/484/505
f 463/486/506 476/20/506 3/24/506
f 471/487/507 479/23/507 480/27/507
f 464/488/508 3/24/508 477/28/508
f 471/487/509 481/31/509 472/489/509
f 465/490/510 477/28/510 4/1/510
f 472/489/511 482/8/511 473/491/511
f 466/492/512 4/1/512 5/3/512
f 4/1/513 15/32/513 16/2/513
f 5/3/514 16/2/514 17/10/514
f 475/12/5 474/4/5 9/6/5
f 6/11/6 17/10/6 18/14/6
f 2/16/7 475/12/7 10/13/7
f 478/15/8 18/14/8 19/18/8
f 476/20/9 2/16/9 11/17/9
f 7/19/10 19/18/10 20/22/10
f 3/24/11 476/20/11 12/21/11
f 479/23/12 20/22/12 21/26/12
f 477/28/13 3/24/13 13/25/13
f 480/27/14 21/26/14 22/30/14
f 4/1/15 477/28/15 14/29/15
f 481/31/16 22/30/16 23/9/16
f 22/30/17 21/26/17 36/33/17
f 15/32/18 14/29/18 29/35/18
f 22/30/19 37/34/19 38/37/19
f 15/32/20 30/36/20 31/38/20
f 16/2/23 31/38/23 32/40/23
f 9/6/24 24/39/24 25/41/24
f 17/10/25 32/40/25 33/42/25
f 10/13/26 25/41/26 26/43/26
f 18/14/27 33/42/27 34/44/27
f 11/17/28 26/43/28 27/45/28
f 19/18/29 34/44/29 35/46/29
f 12/21/30 27/45/30 28/47/30
f 21/26/31 20/22/31 35/46/31
f 13/25/32 28/47/32 29/35/32
f 34/44/33 33/42/33 48/48/33
f 26/43/34 41/62/34 42/50/34
f 35/46/35 34/44/35 49/49/35
f 27/45/36 42/50/36 43/52/36
f 36/33/37 35/46/37 50/51/37
f 28/47/38 43/52/38 44/54/38
f 36/33/515 51/53/515 52/55/515
f 29/35/40 44/54/40 45/56/40
f 37/34/41 52/55/41 53/57/41
f 30/36/42 45/56/42 46/58/42
f 32/40/45 31/38/45 46/58/45
f 24/39/46 39/59/46 40/61/46
f 32/40/47 47/60/47 48/48/47
f 25/41/516 40/61/516 41/62/516
f 52/55/49 67/77/49 68/63/49
f 46/58/50 45/56/50 60/64/50
f 46/58/53 61/65/53 62/67/53
f 39/59/54 54/66/54 55/68/54
f 47/60/55 62/67/55 63/69/55
f 40/61/56 55/68/56 56/70/56
f 49/49/57 48/48/57 63/69/57
f 41/62/58 56/70/58 57/72/58
f 49/49/59 64/71/59 65/73/59
f 42/50/60 57/72/60 58/74/60
f 50/51/61 65/73/61 66/75/61
f 43/52/62 58/74/62 59/76/62
f 51/53/63 66/75/63 67/77/63
f 45/56/64 44/54/64 59/76/64
f 56/70/65 71/91/65 72/78/65
f 64/71/66 79/92/66 80/79/66
f 58/74/67 57/72/67 72/78/67
f 65/73/68 80/79/68 81/81/68
f 58/74/69 73/80/69 74/82/69
f 67/77/70 66/75/70 81/81/70
f 60/64/71 59/76/71 74/82/71
f 67/77/517 82/83/517 83/85/517
f 61/65/73 60/64/73 75/84/73
f 61/65/76 76/86/76 77/88/76
f 54/66/77 69/87/77 70/89/77
f 62/67/78 77/88/78 78/90/78
f 55/68/79 70/89/79 71/91/79
f 64/71/80 63/69/80 78/90/80
f 76/86/81 75/84/81 90/93/81
f 76/86/84 91/94/84 92/97/84
f 69/87/85 84/95/85 85/98/85
f 77/88/86 92/97/86 93/99/86
f 70/89/87 85/98/87 86/100/87
f 79/92/88 78/90/88 93/99/88
f 71/91/89 86/100/89 87/102/89
f 79/92/90 94/101/90 95/103/90
f 73/80/91 72/78/91 87/102/91
f 80/79/92 95/103/92 96/105/92
f 73/80/93 88/104/93 89/106/93
f 81/81/94 96/105/94 97/107/94
f 75/84/95 74/82/95 89/106/95
f 83/85/96 82/83/96 97/107/96
f 94/101/97 109/122/97 110/108/97
f 88/104/98 87/102/98 102/109/98
f 96/105/99 95/103/99 110/108/99
f 88/104/100 103/110/100 104/112/100
f 97/107/101 96/105/101 111/111/101
f 90/93/102 89/106/102 104/112/102
f 97/107/103 112/113/103 113/115/103
f 91/94/104 90/93/104 105/114/104
f 91/94/107 106/116/107 107/118/107
f 85/98/108 84/95/108 99/117/108
f 92/97/109 107/118/109 108/120/109
f 85/98/110 100/119/110 101/121/110
f 94/101/111 93/99/111 108/120/111
f 86/100/112 101/121/112 102/109/112
f 106/116/115 121/137/115 122/125/115
f 100/119/116 99/117/116 114/123/116
f 107/118/117 122/125/117 123/127/117
f 100/119/118 115/126/118 116/128/118
f 109/122/119 108/120/119 123/127/119
f 101/121/120 116/128/120 117/130/120
f 109/122/121 124/129/121 125/131/121
f 103/110/122 102/109/122 117/130/122
f 111/111/123 110/108/123 125/131/123
f 103/110/124 118/132/124 119/134/124
f 111/111/125 126/133/125 127/135/125
f 105/114/126 104/112/126 119/134/126
f 112/113/127 127/135/127 128/124/127
f 106/116/128 105/114/128 120/136/128
f 118/132/129 117/130/129 132/138/129
f 126/133/130 125/131/130 140/140/130
f 118/132/131 133/139/131 134/142/131
f 126/133/132 141/141/132 142/143/132
f 120/136/133 119/134/133 134/142/133
f 127/135/134 142/143/134 143/145/134
f 121/137/135 120/136/135 135/144/135
f 121/137/138 136/146/138 137/148/138
f 114/123/139 129/147/139 130/149/139
f 122/125/140 137/148/140 138/150/140
f 115/126/141 130/149/141 131/151/141
f 124/129/142 123/127/142 138/150/142
f 116/128/143 131/151/143 132/138/143
f 124/129/144 139/152/144 140/140/144
f 136/146/145 151/166/145 152/153/145
f 129/147/146 144/167/146 145/154/146
f 137/148/147 152/153/147 153/155/147
f 131/151/148 130/149/148 145/154/148
f 139/152/149 138/150/149 153/155/149
f 131/151/150 146/156/150 147/158/150
f 139/152/151 154/157/151 155/159/151
f 133/139/152 132/138/152 147/158/152
f 141/141/153 140/140/153 155/159/153
f 133/139/154 148/160/154 149/162/154
f 141/141/155 156/161/155 157/163/155
f 135/144/156 134/142/156 149/162/156
f 143/145/157 142/143/157 157/163/157
f 136/146/158 135/144/158 150/164/158
f 156/161/161 155/159/161 170/168/161
f 148/160/162 163/182/162 164/170/162
f 156/161/518 171/169/518 172/171/518
f 150/164/164 149/162/164 164/170/164
f 157/163/165 172/171/165 173/173/165
f 151/166/166 150/164/166 165/172/166
f 151/166/169 166/174/169 167/176/169
f 144/167/170 159/175/170 160/177/170
f 152/153/171 167/176/171 168/178/171
f 146/156/519 145/154/519 160/177/519
f 154/157/173 153/155/173 168/178/173
f 146/156/174 161/179/174 162/181/174
f 154/157/175 169/180/175 170/168/175
f 148/160/176 147/158/176 162/181/176
f 167/176/177 182/199/177 183/183/177
f 160/177/178 175/200/178 176/184/178
f 169/180/179 168/178/179 183/183/179
f 161/179/180 176/184/180 177/186/180
f 169/180/181 184/185/181 185/187/181
f 163/182/182 162/181/182 177/186/182
f 170/168/183 185/187/183 186/189/183
f 163/182/184 178/188/184 179/190/184
f 172/191/185 171/169/185 186/189/185
f 165/172/186 164/170/186 179/190/186
f 173/194/187 172/191/187 187/192/187
f 166/174/188 165/172/188 180/193/188
f 166/174/191 181/196/191 182/199/191
f 159/175/192 174/197/192 175/200/192
f 186/189/193 201/215/193 202/201/193
f 180/193/194 179/190/194 194/202/194
f 187/192/195 202/201/195 203/204/195
f 181/196/196 180/193/196 195/203/196
f 181/196/199 196/205/199 197/207/199
f 175/200/200 174/197/200 189/206/200
f 182/199/201 197/207/201 198/209/201
f 176/184/202 175/200/202 190/208/202
f 184/185/203 183/183/203 198/209/203
f 176/184/204 191/210/204 192/212/204
f 184/185/205 199/211/205 200/213/205
f 178/188/206 177/186/206 192/212/206
f 186/189/207 185/187/207 200/213/207
f 178/188/208 193/214/208 194/202/208
f 190/208/209 205/230/209 206/216/209
f 199/211/210 198/209/210 213/217/210
f 191/210/211 206/216/211 207/219/211
f 199/211/212 214/218/212 215/220/212
f 193/214/213 192/212/213 207/219/213
f 201/215/214 200/213/214 215/220/214
f 193/214/215 208/221/215 209/223/215
f 201/215/520 216/222/520 217/224/520
f 195/203/217 194/202/217 209/223/217
f 202/201/218 217/224/218 218/226/218
f 196/205/219 195/203/219 210/225/219
f 196/205/222 211/227/222 212/229/222
f 189/206/223 204/228/223 205/230/223
f 197/207/224 212/229/224 213/217/224
f 210/225/225 209/223/225 224/231/225
f 217/224/226 232/245/226 233/233/226
f 211/227/227 210/225/227 225/232/227
f 211/227/230 226/234/230 227/236/230
f 204/228/231 219/235/231 220/237/231
f 212/229/232 227/236/232 228/238/232
f 205/230/233 220/237/233 221/239/233
f 214/218/234 213/217/234 228/238/234
f 206/216/235 221/239/235 222/241/235
f 214/218/236 229/240/236 230/242/236
f 208/221/237 207/219/237 222/241/237
f 216/222/238 215/220/238 230/242/238
f 208/221/239 223/243/239 224/231/239
f 216/222/240 231/244/240 232/245/240
f 229/240/241 228/238/241 243/246/241
f 221/239/242 236/260/242 237/248/242
f 229/240/243 244/247/243 245/249/243
f 223/243/244 222/241/244 237/248/244
f 231/244/245 230/242/245 245/249/245
f 223/243/246 238/250/246 239/252/246
f 231/244/247 246/251/247 247/253/247
f 225/232/248 224/231/248 239/252/248
f 233/233/249 232/245/249 247/253/249
f 226/234/250 225/232/250 240/254/250
f 226/234/253 241/256/253 242/258/253
f 219/235/254 234/257/254 235/259/254
f 227/236/255 242/258/255 243/246/255
f 221/239/256 220/237/256 235/259/256
f 247/253/257 262/275/257 263/261/257
f 241/256/521 240/254/521 255/262/521
f 241/256/522 256/263/522 257/265/522
f 234/257/262 249/264/262 250/266/262
f 242/258/263 257/265/263 258/267/263
f 235/259/264 250/266/264 251/268/264
f 244/247/265 243/246/265 258/267/265
f 236/260/266 251/268/266 252/270/266
f 244/247/267 259/269/267 260/271/267
f 238/250/268 237/248/268 252/270/268
f 246/251/269 245/249/269 260/271/269
f 238/250/270 253/272/270 254/274/270
f 246/251/271 261/273/271 262/275/271
f 240/254/272 239/252/272 254/274/272
f 251/268/273 266/289/273 267/276/273
f 259/269/274 274/290/274 275/277/274
f 253/272/275 252/270/275 267/276/275
f 261/273/276 260/271/276 275/277/276
f 253/272/277 268/278/277 269/280/277
f 261/273/278 276/279/278 277/281/278
f 255/262/279 254/274/279 269/280/279
f 262/275/280 277/281/280 278/283/280
f 256/263/281 255/262/281 270/282/281
f 256/263/284 271/284/284 272/286/284
f 250/266/285 249/264/285 264/285/285
f 257/265/286 272/286/286 273/288/286
f 250/266/287 265/287/287 266/289/287
f 259/269/288 258/267/288 273/288/288
f 271/284/289 270/282/289 285/291/289
f 271/284/292 286/292/292 287/295/292
f 265/287/293 264/285/293 279/293/293
f 272/286/294 287/295/294 288/297/294
f 265/287/523 280/296/523 281/298/523
f 274/290/296 273/288/296 288/297/296
f 266/289/297 281/298/297 282/300/297
f 274/290/298 289/299/298 290/301/298
f 268/278/299 267/276/299 282/300/299
f 276/279/300 275/277/300 290/301/300
f 268/278/301 283/302/301 284/304/301
f 276/279/524 291/303/524 292/305/524
f 270/282/303 269/280/303 284/304/303
f 278/283/304 277/281/304 292/305/304
f 289/299/305 304/320/305 305/306/305
f 283/302/306 282/300/306 297/307/306
f 291/303/307 290/301/307 305/306/307
f 283/302/308 298/308/308 299/310/308
f 291/303/309 306/309/309 307/311/309
f 285/291/310 284/304/310 299/310/310
f 293/294/311 292/305/311 307/311/311
f 286/292/312 285/291/312 300/312/312
f 286/292/315 301/314/315 302/316/315
f 279/293/316 294/315/316 295/317/316
f 287/295/317 302/316/317 303/318/317
f 280/296/318 295/317/318 296/319/318
f 289/299/319 288/297/319 303/318/319
f 281/298/320 296/319/320 297/307/320
f 301/314/322 316/334/322 317/322/322
f 294/315/323 309/335/323 310/323/323
f 302/316/324 317/322/324 318/324/324
f 295/317/325 310/323/325 311/325/325
f 304/320/326 303/318/326 318/324/326
f 296/319/327 311/325/327 312/327/327
f 304/320/328 319/326/328 320/328/328
f 298/308/329 297/307/329 312/327/329
f 306/309/330 305/306/330 320/328/330
f 298/308/331 313/329/331 314/331/331
f 306/309/332 321/330/332 322/332/332
f 300/312/333 299/310/333 314/331/333
f 307/311/525 322/332/525 323/321/525
f 301/314/335 300/312/335 315/333/335
f 321/330/337 320/328/337 335/336/337
f 313/329/338 328/350/338 329/338/338
f 321/330/526 336/337/526 337/339/526
f 315/333/340 314/331/340 329/338/340
f 322/332/341 337/339/341 338/341/341
f 316/334/342 315/333/342 330/340/342
f 316/334/345 331/342/345 332/344/345
f 309/335/346 324/343/346 325/345/346
f 317/322/347 332/344/347 333/346/347
f 310/323/348 325/345/348 326/347/348
f 319/326/349 318/324/349 333/346/349
f 311/325/350 326/347/350 327/349/350
f 319/326/351 334/348/351 335/336/351
f 312/327/352 327/349/352 328/350/352
f 324/343/353 339/364/353 340/351/353
f 332/344/354 347/365/354 348/352/354
f 325/345/355 340/351/355 341/353/355
f 334/348/356 333/346/356 348/352/356
f 326/347/357 341/353/357 342/355/357
f 334/348/358 349/354/358 350/356/358
f 328/350/359 327/349/359 342/355/359
f 336/337/360 335/336/360 350/356/360
f 328/350/361 343/357/361 344/359/361
f 336/337/362 351/358/362 352/360/362
f 330/340/363 329/338/363 344/359/363
f 337/339/364 352/360/364 353/362/364
f 331/342/365 330/340/365 345/361/365
f 331/342/368 346/363/368 347/365/368
f 343/357/369 358/379/369 359/366/369
f 351/358/370 366/380/370 367/367/370
f 345/361/371 344/359/371 359/366/371
f 352/360/372 367/367/372 368/369/372
f 346/363/527 345/361/527 360/368/527
f 346/363/528 361/370/528 362/372/528
f 339/364/377 354/371/377 355/373/377
f 347/365/378 362/372/378 363/374/378
f 341/353/379 340/351/379 355/373/379
f 349/354/380 348/352/380 363/374/380
f 341/353/381 356/375/381 357/377/381
f 349/354/382 364/376/382 365/378/382
f 343/357/383 342/355/383 357/377/383
f 351/358/384 350/356/384 365/378/384
f 362/372/385 377/395/385 378/381/385
f 356/375/386 355/373/386 370/382/386
f 364/376/387 363/374/387 378/381/387
f 356/375/388 371/383/388 372/385/388
f 364/376/389 379/384/389 380/386/389
f 358/379/390 357/377/390 372/385/390
f 366/380/391 365/378/391 380/386/391
f 358/379/392 373/387/392 374/389/392
f 366/380/393 381/388/393 382/390/393
f 360/368/394 359/366/394 374/389/394
f 367/367/395 382/390/395 383/392/395
f 361/370/529 360/368/529 375/391/529
f 361/370/530 376/393/530 377/395/530
f 354/371/400 369/394/400 370/382/400
f 381/388/401 396/410/401 397/396/401
f 375/391/402 374/389/402 389/397/402
f 382/390/403 397/396/403 398/399/403
f 376/393/404 375/391/404 390/398/404
f 376/393/407 391/400/407 392/402/407
f 369/394/408 384/401/408 385/403/408
f 377/395/409 392/402/409 393/404/409
f 371/383/410 370/382/410 385/403/410
f 379/384/411 378/381/411 393/404/411
f 371/383/412 386/405/412 387/407/412
f 379/384/413 394/406/413 395/408/413
f 373/387/414 372/385/414 387/407/414
f 381/388/415 380/386/415 395/408/415
f 373/387/416 388/409/416 389/397/416
f 385/403/417 400/437/417 401/411/417
f 394/413/418 393/438/418 408/414/418
f 386/412/419 401/411/419 402/416/419
f 394/413/420 409/415/420 410/418/420
f 388/420/421 387/417/421 402/416/421
f 396/422/422 395/419/422 410/418/422
f 388/420/423 403/421/423 404/424/423
f 397/426/424 396/422/424 411/423/424
f 390/428/425 389/425/425 404/424/425
f 397/426/426 412/427/426 413/430/426
f 391/432/427 390/428/427 405/429/427
f 391/432/430 406/433/430 407/435/430
f 385/403/431 384/401/431 399/434/431
f 392/436/432 407/435/432 408/414/432
f 405/429/433 404/424/433 419/439/433
f 412/427/434 427/453/434 428/441/434
f 406/433/435 405/429/435 420/440/435
f 406/433/438 421/442/438 422/444/438
f 399/434/439 414/443/439 415/445/439
f 407/435/440 422/444/440 423/446/440
f 401/411/441 400/437/441 415/445/441
f 409/415/442 408/414/442 423/446/442
f 401/411/443 416/447/443 417/449/443
f 409/415/444 424/448/444 425/450/444
f 403/421/445 402/416/445 417/449/445
f 411/423/446 410/418/446 425/450/446
f 403/421/447 418/451/447 419/439/447
f 411/423/448 426/452/448 427/453/448
f 424/448/449 423/446/449 438/454/449
f 416/447/450 431/468/450 432/456/450
f 424/448/451 439/455/451 440/457/451
f 418/451/452 417/449/452 432/456/452
f 426/452/453 425/450/453 440/457/453
f 418/451/454 433/458/454 434/460/454
f 426/452/455 441/459/455 442/461/455
f 420/440/456 419/439/456 434/460/456
f 427/453/457 442/461/457 443/463/457
f 421/442/458 420/440/458 435/462/458
f 421/442/461 436/464/461 437/466/461
f 414/443/462 429/465/462 430/467/462
f 422/444/463 437/466/463 438/454/463
f 416/447/464 415/445/464 430/467/464
f 442/461/465 457/483/465 458/469/465
f 436/464/466 435/462/466 450/470/466
f 436/464/469 451/471/469 452/473/469
f 430/467/470 429/465/470 444/472/470
f 437/466/471 452/473/471 453/475/471
f 430/467/472 445/474/472 446/476/472
f 439/455/473 438/454/473 453/475/473
f 431/468/474 446/476/474 447/478/474
f 439/455/475 454/477/475 455/479/475
f 433/458/476 432/456/476 447/478/476
f 441/459/477 440/457/477 455/479/477
f 433/458/478 448/480/478 449/482/478
f 441/459/479 456/481/479 457/483/479
f 435/462/480 434/460/480 449/482/480
f 454/477/481 469/498/481 470/484/481
f 448/480/482 447/478/482 462/485/482
f 456/481/483 455/479/483 470/484/483
f 448/480/484 463/486/484 464/488/484
f 456/481/485 471/487/485 472/489/485
f 450/470/486 449/482/486 464/488/486
f 458/469/487 457/483/487 472/489/487
f 451/471/488 450/470/488 465/490/488
f 451/471/491 466/492/491 467/494/491
f 444/472/492 459/493/492 460/495/492
f 452/473/493 467/494/493 468/496/493
f 446/476/494 445/474/494 460/495/494
f 454/477/495 453/475/495 468/496/495
f 446/476/496 461/497/496 462/485/496
f 466/492/499 5/3/499 6/11/499
f 460/495/500 459/493/500 474/4/500
f 467/494/501 6/11/501 478/15/501
f 461/497/502 460/495/502 475/12/502
f 468/496/503 478/15/503 7/19/503
f 462/485/504 461/497/504 2/16/504
f 469/498/505 7/19/505 479/23/505
f 463/486/506 462/485/506 476/20/506
f 471/487/507 470/484/507 479/23/507
f 464/488/508 463/486/508 3/24/508
f 471/487/509 480/27/509 481/31/509
f 465/490/510 464/488/510 477/28/510
f 472/489/511 481/31/511 482/8/511
f 466/492/512 465/490/512 4/1/512
